<svg width="20" height="20" viewBox="0 0 20 20" fill="none" xmlns="http://www.w3.org/2000/svg">
<path d="M5.83337 15C4.30927 15.3431 3.33337 15.8702 3.33337 16.4614C3.33337 17.4952 6.31814 18.3333 10 18.3333C13.6819 18.3333 16.6667 17.4952 16.6667 16.4614C16.6667 15.8702 15.6908 15.3431 14.1667 15" stroke="#2D2220" stroke-width="1.5" stroke-linecap="round"/>
<path d="M12.0833 7.49984C12.0833 8.65043 11.1506 9.58317 9.99996 9.58317C8.84937 9.58317 7.91663 8.65043 7.91663 7.49984C7.91663 6.34924 8.84937 5.4165 9.99996 5.4165C11.1506 5.4165 12.0833 6.34924 12.0833 7.49984Z" stroke="#2D2220" stroke-width="1.5"/>
<path d="M11.0478 14.5778C10.7667 14.8485 10.3911 14.9998 10.0001 14.9998C9.60912 14.9998 9.23345 14.8485 8.95238 14.5778C6.37854 12.0838 2.92928 9.29778 4.61138 5.25295C5.52088 3.06594 7.70408 1.6665 10.0001 1.6665C12.2961 1.6665 14.4793 3.06594 15.3888 5.25295C17.0688 9.29268 13.628 12.0924 11.0478 14.5778Z" stroke="#2D2220" stroke-width="1.5"/>
</svg>
