<svg width="12" height="13" viewBox="0 0 12 13" fill="none" xmlns="http://www.w3.org/2000/svg">
<path d="M10.5 11.5H1.5C1.295 11.5 1.125 11.33 1.125 11.125C1.125 10.92 1.295 10.75 1.5 10.75H10.5C10.705 10.75 10.875 10.92 10.875 11.125C10.875 11.33 10.705 11.5 10.5 11.5Z" fill="#0C513F"/>
<path d="M9.51004 2.23983C8.54004 1.26983 7.59004 1.24483 6.59504 2.23983L5.99004 2.84483C5.94004 2.89483 5.92004 2.97483 5.94004 3.04483C6.32004 4.36984 7.38004 5.42983 8.70504 5.80983C8.72504 5.81483 8.74504 5.81984 8.76504 5.81984C8.82004 5.81984 8.87004 5.79984 8.91004 5.75984L9.51004 5.15484C10.005 4.66484 10.245 4.18983 10.245 3.70983C10.25 3.21483 10.01 2.73483 9.51004 2.23983Z" fill="#0C513F"/>
<path d="M7.80491 6.2649C7.65991 6.1949 7.51992 6.1249 7.38492 6.0449C7.27492 5.9799 7.16992 5.9099 7.06492 5.8349C6.97992 5.7799 6.87991 5.6999 6.78491 5.6199C6.77491 5.6149 6.73991 5.5849 6.69991 5.5449C6.53491 5.4049 6.34992 5.2249 6.18492 5.0249C6.16992 5.0149 6.14492 4.9799 6.10992 4.9349C6.05992 4.8749 5.97492 4.7749 5.89992 4.6599C5.83992 4.5849 5.76992 4.4749 5.70492 4.3649C5.62492 4.2299 5.55492 4.0949 5.48492 3.9549C5.47177 3.92673 5.45915 3.89873 5.447 3.87095C5.37727 3.71156 5.16971 3.66511 5.04669 3.78813L2.16992 6.6649C2.10492 6.7299 2.04492 6.8549 2.02992 6.9399L1.75992 8.8549C1.70992 9.1949 1.80492 9.5149 2.01492 9.7299C2.19492 9.9049 2.44492 9.9999 2.71492 9.9999C2.77492 9.9999 2.83492 9.9949 2.89492 9.9849L4.81492 9.7149C4.90492 9.6999 5.02992 9.6399 5.08992 9.5749L7.96327 6.70155C8.08715 6.57767 8.04037 6.36521 7.87911 6.29674C7.85474 6.28639 7.83004 6.27579 7.80491 6.2649Z" fill="#0C513F"/>
</svg>
