<svg width="20" height="20" viewBox="0 0 20 20" fill="none" xmlns="http://www.w3.org/2000/svg">
<path d="M1.66663 8.33301H18.3333" stroke="#141B34" stroke-width="1.5" stroke-linecap="round"/>
<path d="M3.33337 8.33301L3.75331 12.9524C3.94964 15.112 4.04781 16.1918 4.7639 16.8457C5.47999 17.4997 6.56425 17.4997 8.73278 17.4997H11.2673C13.4358 17.4997 14.5201 17.4997 15.2362 16.8457C15.9523 16.1918 16.0504 15.112 16.2468 12.9524L16.6667 8.33301" stroke="#141B34" stroke-width="1.5" stroke-linecap="round"/>
<path d="M3.33337 6.66667L7.50004 5.54129M7.50004 5.54129L12.5 4.19084M7.50004 5.54129L7.67139 4.09317C7.73405 3.56353 8.11031 3.12572 8.62144 2.98766L10.2622 2.54451C10.7733 2.40646 11.3163 2.596 11.6333 3.02309L12.5 4.19084M12.5 4.19084L16.6667 3.06547" stroke="#141B34" stroke-width="1.5" stroke-linecap="round"/>
</svg>
