<svg width="50" height="50" viewBox="0 0 50 50" fill="none" xmlns="http://www.w3.org/2000/svg">
<circle cx="25" cy="25" r="24.6605" stroke="#DD89C7" stroke-width="0.679004" stroke-linecap="round" stroke-linejoin="round" stroke-dasharray="3.4 3.4"/>
<circle cx="25" cy="25" r="20" fill="white"/>
<g clip-path="url(#clip0_2523_673026)">
<path d="M20.1482 24.9518C19.3582 23.5743 18.9767 22.4494 18.7467 21.3092C18.4066 19.6228 19.185 17.9755 20.4747 16.9244C21.0197 16.4802 21.6446 16.6319 21.9669 17.2102L22.6945 18.5156C23.2713 19.5503 23.5597 20.0677 23.5025 20.6162C23.4453 21.1647 23.0563 21.6114 22.2785 22.5048L20.1482 24.9518ZM20.1482 24.9518C21.7473 27.7401 24.2567 30.2509 27.0482 31.8518M27.0482 31.8518C28.4258 32.6418 29.5506 33.0233 30.6909 33.2533C32.3772 33.5935 34.0245 32.815 35.0756 31.5254C35.5199 30.9803 35.3681 30.3555 34.7899 30.0332L33.4844 29.3055C32.4497 28.7288 31.9324 28.4404 31.3839 28.4976C30.8354 28.5548 30.3887 28.9437 29.4952 29.7215L27.0482 31.8518Z" stroke="#141B34" stroke-width="1.7" stroke-linejoin="round"/>
</g>
<defs>
<clipPath id="clip0_2523_673026">
<rect width="20" height="20" fill="white" transform="translate(17 15)"/>
</clipPath>
</defs>
</svg>
