<svg width="20" height="20" viewBox="0 0 20 20" fill="none" xmlns="http://www.w3.org/2000/svg">
<path d="M9.99854 1.6665C7.49206 1.6665 5.86686 3.349 3.9448 3.96226C3.16328 4.21161 2.77252 4.33629 2.61437 4.51205C2.45623 4.6878 2.40993 4.94463 2.31731 5.45828C1.32624 10.9548 3.49246 16.0365 8.65862 18.0144C9.21369 18.2269 9.49123 18.3332 10.0013 18.3332C10.5113 18.3332 10.7888 18.2269 11.3439 18.0144C16.5097 16.0365 18.6739 10.9548 17.6825 5.45828C17.5899 4.94454 17.5435 4.68767 17.3854 4.51191C17.2272 4.33615 16.8364 4.21154 16.055 3.96233C14.1322 3.34913 12.5051 1.6665 9.99854 1.6665Z" stroke="#2D2220" stroke-width="1.5" stroke-linecap="round" stroke-linejoin="round"/>
<path d="M7.98363 13.2146L7.67939 13.9001H7.67939L7.98363 13.2146ZM7.19438 12.3689L6.49484 12.6394H6.49484L7.19438 12.3689ZM12.8057 12.3689L13.5052 12.6394V12.6394L12.8057 12.3689ZM12.0165 13.2146L12.3207 13.9001H12.3207L12.0165 13.2146ZM12.0165 8.76493L12.3207 8.07941L12.0165 8.76493ZM12.8057 9.61055L13.5052 9.34011V9.34011L12.8057 9.61055ZM7.98363 8.76493L7.67939 8.07941H7.67939L7.98363 8.76493ZM7.19438 9.61055L6.49484 9.34011L7.19438 9.61055ZM7.79171 8.646C7.79171 9.06021 8.12749 9.396 8.54171 9.396C8.95592 9.396 9.29171 9.06021 9.29171 8.646H7.79171ZM10.7084 8.646C10.7084 9.06021 11.0442 9.396 11.4584 9.396C11.8726 9.396 12.2084 9.06021 12.2084 8.646H10.7084ZM9.27087 8.646V9.396H10.7292V8.646V7.896H9.27087V8.646ZM10.7292 13.3335V12.5835H9.27087V13.3335V14.0835H10.7292V13.3335ZM9.27087 13.3335V12.5835C8.92014 12.5835 8.69732 12.583 8.52762 12.5706C8.36575 12.5588 8.31033 12.539 8.28786 12.529L7.98363 13.2146L7.67939 13.9001C7.92492 14.009 8.17338 14.0487 8.41826 14.0666C8.65531 14.084 8.94211 14.0835 9.27087 14.0835V13.3335ZM7.08337 10.9897H6.33337C6.33337 11.3442 6.33302 11.6451 6.34877 11.8923C6.36488 12.1454 6.40004 12.3942 6.49484 12.6394L7.19438 12.3689L7.89393 12.0985C7.87772 12.0566 7.85737 11.9797 7.84573 11.797C7.83373 11.6085 7.83337 11.3633 7.83337 10.9897H7.08337ZM7.98363 13.2146L8.28786 12.529C8.1219 12.4554 7.9743 12.3064 7.89393 12.0985L7.19438 12.3689L6.49484 12.6394C6.71049 13.1972 7.13069 13.6566 7.67939 13.9001L7.98363 13.2146ZM12.9167 10.9897H12.1667C12.1667 11.3633 12.1664 11.6085 12.1543 11.797C12.1427 11.9797 12.1224 12.0566 12.1062 12.0985L12.8057 12.3689L13.5052 12.6394C13.6 12.3942 13.6352 12.1454 13.6513 11.8923C13.6671 11.6451 13.6667 11.3442 13.6667 10.9897H12.9167ZM10.7292 13.3335V14.0835C11.058 14.0835 11.3448 14.084 11.5818 14.0666C11.8267 14.0487 12.0752 14.009 12.3207 13.9001L12.0165 13.2146L11.7122 12.529C11.6897 12.539 11.6343 12.5588 11.4725 12.5706C11.3028 12.583 11.0799 12.5835 10.7292 12.5835V13.3335ZM12.8057 12.3689L12.1062 12.0985C12.0258 12.3064 11.8782 12.4554 11.7122 12.529L12.0165 13.2146L12.3207 13.9001C12.8694 13.6566 13.2896 13.1972 13.5052 12.6394L12.8057 12.3689ZM10.7292 8.646V9.396C11.0799 9.396 11.3028 9.39646 11.4725 9.40887C11.6343 9.4207 11.6897 9.44048 11.7122 9.45046L12.0165 8.76493L12.3207 8.07941C12.0752 7.97045 11.8267 7.93076 11.5818 7.91286C11.3448 7.89553 11.058 7.896 10.7292 7.896V8.646ZM12.9167 10.9897H13.6667C13.6667 10.6353 13.6671 10.3344 13.6513 10.0872C13.6352 9.83407 13.6 9.58532 13.5052 9.34011L12.8057 9.61055L12.1062 9.881C12.1224 9.92293 12.1427 9.99975 12.1543 10.1825C12.1664 10.371 12.1667 10.6161 12.1667 10.9897H12.9167ZM12.0165 8.76493L11.7122 9.45046C11.8782 9.52411 12.0258 9.67309 12.1062 9.881L12.8057 9.61055L13.5052 9.34011C13.2896 8.78231 12.8694 8.32293 12.3207 8.07941L12.0165 8.76493ZM9.27087 8.646V7.896C8.94211 7.896 8.65531 7.89553 8.41826 7.91286C8.17338 7.93076 7.92492 7.97045 7.67939 8.07941L7.98363 8.76493L8.28786 9.45046C8.31033 9.44048 8.36575 9.4207 8.52762 9.40887C8.69732 9.39646 8.92014 9.396 9.27087 9.396V8.646ZM7.08337 10.9897H7.83337C7.83337 10.6161 7.83373 10.371 7.84573 10.1825C7.85737 9.99975 7.87772 9.92293 7.89393 9.881L7.19438 9.61055L6.49484 9.34011C6.40004 9.58532 6.36488 9.83407 6.34877 10.0872C6.33302 10.3344 6.33337 10.6353 6.33337 10.9897H7.08337ZM7.98363 8.76493L7.67939 8.07941C7.13069 8.32293 6.71049 8.78231 6.49484 9.34011L7.19438 9.61055L7.89393 9.881C7.9743 9.67309 8.1219 9.52411 8.28786 9.45046L7.98363 8.76493ZM8.54171 8.646H9.29171V7.23975H8.54171H7.79171V8.646H8.54171ZM11.4584 7.23975H10.7084V8.646H11.4584H12.2084V7.23975L11.4584 7.23975ZM10 5.8335V6.5835C10.4172 6.5835 10.7084 6.90278 10.7084 7.23975H11.4584L12.2084 7.23975C12.2084 6.02341 11.1937 5.0835 10 5.0835V5.8335ZM8.54171 7.23975H9.29171C9.29171 6.90278 9.5829 6.5835 10 6.5835V5.8335V5.0835C8.80635 5.0835 7.79171 6.02341 7.79171 7.23975H8.54171Z" fill="#2D2220"/>
</svg>
