<svg width="50" height="51" viewBox="0 0 50 51" fill="none" xmlns="http://www.w3.org/2000/svg">
<circle cx="25" cy="26" r="24.6798" stroke="#5D8B7F" stroke-width="0.64044" stroke-linecap="round" stroke-linejoin="round" stroke-dasharray="3.2 3.2"/>
<circle cx="25" cy="26" r="20" fill="white"/>
<path d="M32.3116 31C32.936 31 33.4327 30.6071 33.8786 30.0576C34.7915 28.9329 33.2927 28.034 32.721 27.5938C32.1399 27.1463 31.4911 26.8928 30.8332 26.8333M29.9999 25.1667C31.1505 25.1667 32.0832 24.2339 32.0832 23.0833C32.0832 21.9327 31.1505 21 29.9999 21" stroke="#141B34" stroke-width="1.5" stroke-linecap="round"/>
<path d="M17.6882 31C17.0638 31 16.5671 30.6071 16.1212 30.0576C15.2083 28.9329 16.7071 28.034 17.2788 27.5938C17.8599 27.1463 18.5087 26.8928 19.1666 26.8333M19.5833 25.1667C18.4327 25.1667 17.4999 24.2339 17.4999 23.0833C17.4999 21.9327 18.4327 21 19.5833 21" stroke="#141B34" stroke-width="1.5" stroke-linecap="round"/>
<path d="M21.7364 28.5925C20.8849 29.119 18.6524 30.1941 20.0122 31.5394C20.6764 32.1965 21.4162 32.6665 22.3463 32.6665H27.6536C28.5837 32.6665 29.3234 32.1965 29.9877 31.5394C31.3474 30.1941 29.1149 29.119 28.2634 28.5925C26.2667 27.3578 23.7331 27.3578 21.7364 28.5925Z" stroke="#141B34" stroke-width="1.5" stroke-linecap="round" stroke-linejoin="round"/>
<path d="M27.9166 22.2499C27.9166 23.8607 26.6107 25.1666 24.9999 25.1666C23.3891 25.1666 22.0833 23.8607 22.0833 22.2499C22.0833 20.6391 23.3891 19.3333 24.9999 19.3333C26.6107 19.3333 27.9166 20.6391 27.9166 22.2499Z" stroke="#141B34" stroke-width="1.5"/>
</svg>
