<svg width="20" height="20" viewBox="0 0 20 20" fill="none" xmlns="http://www.w3.org/2000/svg">
<path d="M3.14798 9.9518C2.35796 8.57426 1.9765 7.4494 1.74649 6.30918C1.40631 4.62282 2.1848 2.97551 3.47444 1.9244C4.0195 1.48016 4.64432 1.63194 4.96663 2.21017L5.69428 3.51559C6.27103 4.55031 6.55941 5.06767 6.50221 5.61616C6.44501 6.16466 6.0561 6.61139 5.27827 7.50484L3.14798 9.9518ZM3.14798 9.9518C4.74705 12.7401 7.25649 15.2509 10.048 16.8518M10.048 16.8518C11.4255 17.6418 12.5504 18.0233 13.6906 18.2533C15.377 18.5935 17.0243 17.815 18.0754 16.5254C18.5196 15.9803 18.3679 15.3555 17.7896 15.0332L16.4842 14.3055C15.4495 13.7288 14.9321 13.4404 14.3836 13.4976C13.8351 13.5548 13.3884 13.9437 12.495 14.7215L10.048 16.8518Z" stroke="#2D2220" stroke-width="1.5" stroke-linejoin="round"/>
</svg>
