<svg width="18" height="18" viewBox="0 0 18 18" fill="none" xmlns="http://www.w3.org/2000/svg">
<g clip-path="url(#clip0_2523_673035)">
<path d="M1.5 9.3C1.5 7.03726 1.5 5.90589 2.2097 5.20294C2.91941 4.5 4.06165 4.5 6.34615 4.5H7.15385C9.43834 4.5 10.5806 4.5 11.2903 5.20294C12 5.90589 12 7.03726 12 9.3V11.7C12 13.9627 12 15.0941 11.2903 15.7971C10.5806 16.5 9.43834 16.5 7.15385 16.5H6.34615C4.06165 16.5 2.91941 16.5 2.2097 15.7971C1.5 15.0941 1.5 13.9627 1.5 11.7V9.3Z" stroke="#141B34" stroke-width="1.5" stroke-linejoin="round"/>
<path d="M11.6532 12H12.3456C14.304 12 15.2832 12 15.8916 11.3849C16.5 10.7698 16.5 9.7799 16.5 7.8V5.7C16.5 3.7201 16.5 2.73015 15.8916 2.11508C15.2832 1.5 14.304 1.5 12.3456 1.5H11.6532C9.69479 1.5 8.71559 1.5 8.10719 2.11508C7.57517 2.65294 7.50838 3.47748 7.5 5" stroke="#141B34" stroke-width="1.5" stroke-linejoin="round"/>
<path d="M4.5 9H6.75M4.5 12.75H8.25" stroke="#141B34" stroke-width="1.5" stroke-linecap="round"/>
<path d="M7.875 2.25L10.875 4.875" stroke="#141B34" stroke-width="1.5" stroke-linejoin="round"/>
</g>
<defs>
<clipPath id="clip0_2523_673035">
<rect width="18" height="18" fill="white"/>
</clipPath>
</defs>
</svg>
