<svg width="18" height="18" viewBox="0 0 18 18" fill="none" xmlns="http://www.w3.org/2000/svg">
<circle cx="9" cy="9" r="7.5" stroke="#F8A84C" stroke-width="1.5"/>
<path d="M9.75 5.25C9.75 4.83579 9.41421 4.5 9 4.5C8.58579 4.5 8.25 4.83579 8.25 5.25H9.75ZM10.6553 9.59467C10.3624 9.30178 9.88756 9.30178 9.59467 9.59467C9.30178 9.88756 9.30178 10.3624 9.59467 10.6553L10.6553 9.59467ZM10.7197 11.7803C11.0126 12.0732 11.4874 12.0732 11.7803 11.7803C12.0732 11.4874 12.0732 11.0126 11.7803 10.7197L10.7197 11.7803ZM9 5.25H8.25V7.875H9H9.75V5.25H9ZM10.125 10.125L9.59467 10.6553L10.7197 11.7803L11.25 11.25L11.7803 10.7197L10.6553 9.59467L10.125 10.125ZM10.125 9H9.375C9.375 9.20711 9.20711 9.375 9 9.375V10.125V10.875C10.0355 10.875 10.875 10.0355 10.875 9H10.125ZM9 10.125V9.375C8.79289 9.375 8.625 9.20711 8.625 9H7.875H7.125C7.125 10.0355 7.96447 10.875 9 10.875V10.125ZM7.875 9H8.625C8.625 8.79289 8.79289 8.625 9 8.625V7.875V7.125C7.96447 7.125 7.125 7.96447 7.125 9H7.875ZM9 7.875V8.625C9.20711 8.625 9.375 8.79289 9.375 9H10.125H10.875C10.875 7.96447 10.0355 7.125 9 7.125V7.875Z" fill="#F8A84C"/>
</svg>
