<svg width="50" height="50" viewBox="0 0 50 50" fill="none" xmlns="http://www.w3.org/2000/svg">
<rect width="50" height="50" rx="25" fill="#E7F6EC"/>
<path fill-rule="evenodd" clip-rule="evenodd" d="M25 35.5C30.799 35.5 35.5 30.799 35.5 25C35.5 19.201 30.799 14.5 25 14.5C19.201 14.5 14.5 19.201 14.5 25C14.5 30.799 19.201 35.5 25 35.5ZM29.288 23.527C29.7631 23.0918 29.7955 22.3539 29.3604 21.8787C28.9252 21.4035 28.1872 21.3711 27.712 21.8063L23.4046 25.7513L22.288 24.7286C21.8128 24.2934 21.0748 24.3258 20.6396 24.801C20.2045 25.2762 20.2369 26.0141 20.712 26.4493L22.6166 28.1937C23.0626 28.6021 23.7466 28.6021 24.1926 28.1937L29.288 23.527Z" fill="#05A85A"/>
</svg>
