<svg width="20" height="20" viewBox="0 0 20 20" fill="none" xmlns="http://www.w3.org/2000/svg">
<path d="M13.3333 14.1665L7.49992 14.1665" stroke="#2D2220" stroke-width="1.5" stroke-linecap="round" stroke-linejoin="round"/>
<path d="M13.3333 10.833L10.8333 10.833" stroke="#2D2220" stroke-width="1.5" stroke-linecap="round" stroke-linejoin="round"/>
<path d="M17.0833 11.6663C17.0833 14.809 17.0833 16.3804 16.0459 17.3567C15.0086 18.333 13.339 18.333 9.99992 18.333H9.35598C6.63831 18.333 5.27947 18.333 4.33581 17.6681C4.06543 17.4777 3.8254 17.2517 3.623 16.9973C2.91659 16.1091 2.91658 14.8302 2.91658 12.2724V10.1512C2.91658 7.68188 2.91658 6.44723 3.30737 5.46113C3.9356 3.87586 5.2642 2.62541 6.94855 2.03413C7.99627 1.66634 9.3081 1.66634 11.9317 1.66634C13.431 1.66634 14.1806 1.66634 14.7793 1.87651C15.7418 2.21438 16.501 2.92892 16.8599 3.83479C17.0833 4.39827 17.0833 5.10379 17.0833 6.51483V11.6663Z" stroke="#2D2220" stroke-width="1.5" stroke-linejoin="round"/>
<path d="M2.91667 10C2.91667 8.46588 4.16032 7.22222 5.69444 7.22222C6.24926 7.22222 6.90336 7.31944 7.4428 7.1749C7.9221 7.04647 8.29647 6.6721 8.4249 6.1928C8.56944 5.65336 8.47222 4.99926 8.47222 4.44444C8.47222 2.91032 9.71588 1.66667 11.25 1.66667" stroke="#2D2220" stroke-width="1.5" stroke-linecap="round" stroke-linejoin="round"/>
</svg>
