<svg width="20" height="20" viewBox="0 0 20 20" fill="none" xmlns="http://www.w3.org/2000/svg">
<path d="M8.77431 11.3648C9.37312 11.0106 9.67252 10.8335 9.99996 10.8335C10.3274 10.8335 10.6268 11.0106 11.2256 11.3648L12.0589 11.8578C12.6805 12.2255 12.9913 12.4093 13.1623 12.7168C13.3333 13.0243 13.3333 13.3993 13.3333 14.1493V15.0177C13.3333 15.7677 13.3333 16.1427 13.1623 16.4502C12.9913 16.7576 12.6805 16.9415 12.0589 17.3092L11.2256 17.8022C10.6268 18.1564 10.3274 18.3335 9.99996 18.3335C9.67252 18.3335 9.37312 18.1564 8.77431 17.8022L7.94097 17.3092C7.31939 16.9415 7.0086 16.7576 6.83761 16.4502C6.66663 16.1427 6.66663 15.7677 6.66663 15.0177V14.1493C6.66663 13.3993 6.66663 13.0243 6.83761 12.7168C7.0086 12.4093 7.31939 12.2255 7.94097 11.8578L8.77431 11.3648Z" stroke="#2D2220" stroke-width="1.5" stroke-linejoin="round"/>
<path d="M15.2588 1.67622H4.74116C3.93143 1.67622 2.85952 1.54504 2.30576 2.24652C2 2.63383 2 3.19429 2 4.3152C2 5.27087 2 5.7487 2.20617 6.15128C2.55829 6.83887 3.34557 7.13755 4.02037 7.46237L7.31672 9.04911C8.63344 9.68293 9.2918 9.99984 10 9.99984C10.7082 9.99984 11.3666 9.68293 12.6833 9.04911L15.9796 7.46237C16.6544 7.13755 17.4417 6.83887 17.7938 6.15128C18 5.7487 18 5.27087 18 4.3152C18 3.19429 18 2.63383 17.6942 2.24652C17.1405 1.54504 16.0686 1.67622 15.2588 1.67622Z" stroke="#2D2220" stroke-width="1.5"/>
<path d="M10 1.6665V5.83317" stroke="#2D2220" stroke-width="1.5" stroke-linecap="round"/>
</svg>
