<svg width="20" height="20" viewBox="0 0 20 20" fill="none" xmlns="http://www.w3.org/2000/svg">
<g clip-path="url(#clip0_2690_193659)">
<path d="M2.91663 15C2.91663 13.8215 2.91663 13.2322 3.28274 12.8661C3.64886 12.5 4.23811 12.5 5.41663 12.5H5.83329C6.61897 12.5 7.0118 12.5 7.25588 12.7441C7.49996 12.9882 7.49996 13.381 7.49996 14.1667V18.3333H2.91663V15Z" stroke="#2D2220" stroke-width="1.5" stroke-linecap="round" stroke-linejoin="round"/>
<path d="M12.5 15.8332C12.5 15.0475 12.5 14.6547 12.7441 14.4106C12.9882 14.1665 13.381 14.1665 14.1667 14.1665H14.5833C15.7618 14.1665 16.3511 14.1665 16.7172 14.5326C17.0833 14.8987 17.0833 15.488 17.0833 16.6665V18.3332H12.5V15.8332Z" stroke="#2D2220" stroke-width="1.5" stroke-linecap="round" stroke-linejoin="round"/>
<path d="M1.66663 18.3335H18.3333" stroke="#2D2220" stroke-width="1.5" stroke-linecap="round" stroke-linejoin="round"/>
<path d="M7.5 13.3335C7.5 12.155 7.5 11.5657 7.86612 11.1996C8.23223 10.8335 8.82149 10.8335 10 10.8335C11.1785 10.8335 11.7678 10.8335 12.1339 11.1996C12.5 11.5657 12.5 12.155 12.5 13.3335V18.3335H7.5V13.3335Z" stroke="#2D2220" stroke-width="1.5" stroke-linecap="round" stroke-linejoin="round"/>
<path d="M10.5758 2.1479L11.1624 3.3308C11.2424 3.49546 11.4557 3.6534 11.6357 3.68365L12.6989 3.86176C13.3789 3.97601 13.5388 4.47337 13.0489 4.964L12.2223 5.79741C12.0823 5.93855 12.0057 6.21075 12.049 6.40566L12.2856 7.43734C12.4723 8.25394 12.0423 8.56983 11.3258 8.14304L10.3292 7.54823C10.1492 7.4407 9.85258 7.4407 9.66927 7.54823L8.67271 8.14304C7.95946 8.56983 7.52618 8.25058 7.71282 7.43734L7.94946 6.40566C7.99279 6.21075 7.91613 5.93855 7.77615 5.79741L6.94957 4.964C6.46296 4.47337 6.61961 3.97601 7.29953 3.86176L8.36275 3.68365C8.5394 3.6534 8.75271 3.49546 8.8327 3.3308L9.4193 2.1479C9.73926 1.50604 10.2592 1.50604 10.5758 2.1479Z" stroke="#2D2220" stroke-width="1.5" stroke-linecap="round" stroke-linejoin="round"/>
</g>
<defs>
<clipPath id="clip0_2690_193659">
<rect width="20" height="20" fill="white"/>
</clipPath>
</defs>
</svg>
