<svg width="51" height="51" viewBox="0 0 51 51" fill="none" xmlns="http://www.w3.org/2000/svg">
<circle cx="26" cy="25.5" r="24.6394" stroke="#F4B551" stroke-width="0.721183" stroke-linecap="round" stroke-linejoin="round" stroke-dasharray="3.61 3.61"/>
<circle cx="26" cy="25.5" r="20" fill="white"/>
<path d="M17.5834 20.25L23.0562 23.3509C25.0738 24.4941 25.9263 24.4941 27.9439 23.3509L33.4167 20.25" stroke="#141B34" stroke-width="1.775" stroke-linejoin="round"/>
<path d="M17.5959 26.1681C17.6476 28.595 17.6735 29.8084 18.569 30.7073C19.4644 31.6062 20.7107 31.6375 23.2033 31.7001C24.7395 31.7387 26.2606 31.7387 27.7968 31.7001C30.2894 31.6375 31.5356 31.6062 32.4311 30.7073C33.3266 29.8084 33.3525 28.595 33.4042 26.1681C33.4209 25.3878 33.4209 24.6121 33.4042 23.8317C33.3525 21.4049 33.3266 20.1914 32.4311 19.2925C31.5356 18.3936 30.2894 18.3623 27.7968 18.2997C26.2606 18.2611 24.7395 18.2611 23.2033 18.2997C20.7107 18.3623 19.4644 18.3936 18.569 19.2925C17.6735 20.1914 17.6476 21.4048 17.5959 23.8317C17.5792 24.6121 17.5792 25.3878 17.5959 26.1681Z" stroke="#141B34" stroke-width="1.775" stroke-linejoin="round"/>
</svg>
