<svg width="18" height="18" viewBox="0 0 18 18" fill="none" xmlns="http://www.w3.org/2000/svg">
<path d="M9 6V9L10.125 10.125" stroke="#DC6C3C" stroke-width="1.5" stroke-linecap="round" stroke-linejoin="round"/>
<path d="M14.6591 12.34C15.8864 13.0028 16.5 13.3342 16.5 13.875C16.5 14.4158 15.8864 14.7472 14.6591 15.41L13.8233 15.8613C12.8808 16.3703 12.4095 16.6248 12.183 16.4397C11.628 15.9866 12.4926 14.8171 12.7053 14.4028C12.9208 13.983 12.9169 13.7594 12.7053 13.3472C12.4926 12.9329 11.628 11.7634 12.183 11.3103C12.4095 11.1252 12.8808 11.3797 13.8233 11.8887L14.6591 12.34Z" stroke="#DC6C3C" stroke-width="1.5"/>
<path d="M9.76959 16.461C9.51657 16.4868 9.25983 16.5 9 16.5C4.85786 16.5 1.5 13.1421 1.5 9C1.5 4.85786 4.85786 1.5 9 1.5C13.1421 1.5 16.5 4.85786 16.5 9C16.5 9.5137 16.4484 10.0153 16.35 10.5" stroke="#DC6C3C" stroke-width="1.5" stroke-linecap="round"/>
</svg>
