<svg width="84" height="80" viewBox="0 0 84 80" fill="none" xmlns="http://www.w3.org/2000/svg">
<path d="M42 79.6633C64.6553 79.6633 83.0211 72.4586 83.0211 63.5711C83.0211 54.6836 64.6553 47.4789 42 47.4789C19.3447 47.4789 0.978882 54.6836 0.978882 63.5711C0.978882 72.4586 19.3447 79.6633 42 79.6633Z" fill="#FFE1D4"/>
<path d="M30.4845 0.33667L33.4878 4.43111L25.2611 56.0089L22.2589 51.9144L30.4845 0.33667Z" fill="#E89D7D"/>
<path d="M25.2611 56.2589C25.1822 56.2589 25.1078 56.2222 25.06 56.1567L22.0567 52.0622C22.0167 52.0089 22.0011 51.9411 22.0111 51.8745L30.2367 0.296675C30.2522 0.196675 30.3267 0.116675 30.4245 0.0933414C30.5222 0.0700081 30.6256 0.106675 30.6845 0.188897L33.6878 4.28334C33.7278 4.33668 33.7433 4.40445 33.7333 4.47112L25.5078 56.0489C25.4922 56.1489 25.4178 56.2289 25.32 56.2522C25.3011 56.2567 25.2811 56.2589 25.2611 56.2589ZM22.5222 51.8511L25.1089 55.3789L33.2245 4.49556L30.6378 0.967787L22.5222 51.8511Z" fill="#FFE1D4"/>
<path d="M40.1578 8.93335L43.1611 13.0278L36.3056 56.0089L33.3033 51.9145L40.1578 8.93335Z" fill="#E89D7D"/>
<path d="M36.3056 56.2589C36.2267 56.2589 36.1522 56.2223 36.1044 56.1567L33.1011 52.0623C33.0611 52.0089 33.0456 51.9411 33.0556 51.8745L39.91 8.89225C39.9256 8.79225 40 8.71226 40.0978 8.68892C40.1956 8.66559 40.2989 8.70225 40.3578 8.78448L43.3611 12.8789C43.4011 12.9323 43.4167 13 43.4067 13.0667L36.5511 56.0489C36.5356 56.1489 36.4611 56.2289 36.3633 56.2523C36.3456 56.2567 36.3256 56.2589 36.3056 56.2589ZM33.5667 51.8511L36.1533 55.3789L42.8978 13.0911L40.3111 9.56337L33.5667 51.8511Z" fill="#FFE1D4"/>
<path d="M49.8322 17.5289L52.8344 21.6233L50.0689 38.9666L47.0656 34.8722L49.8322 17.5289Z" fill="#E89D7D"/>
<path d="M50.0689 39.2167C49.99 39.2167 49.9155 39.18 49.8677 39.1144L46.8644 35.02C46.8244 34.9667 46.8089 34.8989 46.8189 34.8322L49.5844 17.4889C49.6 17.3889 49.6744 17.3089 49.7722 17.2855C49.87 17.2622 49.9733 17.2989 50.0322 17.3811L53.0355 21.4755C53.0755 21.5289 53.0911 21.5967 53.0811 21.6633L50.3155 39.0067C50.3 39.1067 50.2255 39.1867 50.1278 39.21C50.1078 39.2144 50.0877 39.2167 50.0689 39.2167ZM47.3289 34.8089L49.9155 38.3367L52.5711 21.6878L49.9844 18.16L47.3289 34.8089Z" fill="#FFE1D4"/>
<path d="M59.52 26.0211L62.5234 30.1156L61.5 36.5356L58.4967 32.4411L59.52 26.0211Z" fill="#E89D7D"/>
<path d="M61.5 36.7856C61.4211 36.7856 61.3467 36.7489 61.2989 36.6833L58.2956 32.5889C58.2556 32.5356 58.24 32.4678 58.25 32.4011L59.2745 25.9811C59.29 25.8811 59.3645 25.8011 59.4622 25.7778C59.56 25.7545 59.6633 25.7911 59.7222 25.8733L62.7256 29.9678C62.7656 30.0211 62.7811 30.0889 62.7711 30.1556L61.7467 36.5756C61.7311 36.6756 61.6567 36.7556 61.5589 36.7789C61.5389 36.7833 61.5189 36.7856 61.5 36.7856ZM58.76 32.3767L61.3467 35.9045L62.26 30.1789L59.6733 26.6511L58.76 32.3767Z" fill="#FFE1D4"/>
<path d="M56.9189 42.3333L59.9222 46.4278L58.3933 56.0089L55.3911 51.9144L56.9189 42.3333Z" fill="#E89D7D"/>
<path d="M58.3933 56.2589C58.3144 56.2589 58.24 56.2222 58.1922 56.1566L55.1889 52.0622C55.1489 52.0089 55.1333 51.9411 55.1433 51.8744L56.6711 42.2933C56.6867 42.1933 56.7611 42.1133 56.8589 42.09C56.9567 42.0667 57.06 42.1033 57.1189 42.1855L60.1222 46.28C60.1622 46.3333 60.1778 46.4011 60.1678 46.4678L58.64 56.0489C58.6244 56.1489 58.55 56.2289 58.4522 56.2522C58.4333 56.2567 58.4133 56.2589 58.3933 56.2589ZM55.6544 51.8511L58.2411 55.3789L59.6589 46.4922L57.0722 42.9644L55.6544 51.8511Z" fill="#FFE1D4"/>
<path d="M30.4845 0.33667L22.2589 51.9144H11.2156L19.4411 0.33667H30.4845Z" fill="#EEB69E"/>
<path d="M22.2589 52.1648H11.2156C11.1423 52.1648 11.0734 52.1326 11.0256 52.077C10.9778 52.0215 10.9578 51.9481 10.9689 51.8759L19.1945 0.298147C19.2134 0.177035 19.3189 0.0870361 19.4412 0.0870361H30.4845C30.5578 0.0870361 30.6267 0.119259 30.6745 0.174815C30.7223 0.23037 30.7423 0.303703 30.7312 0.375926L22.5056 51.9537C22.4856 52.0759 22.3812 52.1648 22.2589 52.1648ZM11.5089 51.6648H22.0456L30.1923 0.587036H19.6556L11.5089 51.6648Z" fill="#FFE1D4"/>
<path d="M40.1578 8.93335L33.3034 51.9145H22.2589L29.1134 8.93335H40.1578Z" fill="#DC6C3C"/>
<path d="M33.3034 52.1645H22.2589C22.1856 52.1645 22.1167 52.1323 22.0689 52.0767C22.0212 52.0211 22.0012 51.9478 22.0123 51.8756L28.8678 8.89336C28.8867 8.77225 28.9923 8.68225 29.1145 8.68225H40.1589C40.2323 8.68225 40.3012 8.71447 40.3489 8.77003C40.3967 8.82558 40.4167 8.89891 40.4056 8.97114L33.5512 51.9534C33.5312 52.0756 33.4256 52.1645 33.3034 52.1645ZM22.5512 51.6645H33.0889L39.8645 9.18225H29.3267L22.5512 51.6645Z" fill="#FFE1D4"/>
<path d="M38.7867 17.5289H49.8311L47.0656 34.8722C40.3045 38.2011 35.0522 44.5778 33.7989 51.9144H33.3022L38.7867 17.5289Z" fill="#EEB69E"/>
<path d="M33.7989 52.1644H33.3023C33.2289 52.1644 33.1601 52.1322 33.1123 52.0766C33.0645 52.0211 33.0445 51.9478 33.0556 51.8755L38.54 17.49C38.5589 17.3689 38.6645 17.2789 38.7867 17.2789H49.8312C49.9045 17.2789 49.9734 17.3111 50.0212 17.3666C50.0689 17.4222 50.0889 17.4955 50.0778 17.5678L47.3123 34.9111C47.3 34.9911 47.2489 35.06 47.1756 35.0955C40.2723 38.4955 35.2401 44.9555 34.0456 51.9555C34.0256 52.0766 33.9212 52.1644 33.7989 52.1644ZM39.0001 17.7789L33.6334 51.4289C34.9801 44.4844 39.9989 38.1178 46.8389 34.7055L49.5389 17.7789H39.0001Z" fill="#FFE1D4"/>
<path d="M48.2278 62.3567C48.1478 62.2367 48.0711 62.1156 47.9978 61.9911C47.9967 61.9889 47.9945 61.9856 47.9934 61.9833C47.9223 61.8611 47.8545 61.7378 47.7889 61.6122C47.7711 61.5767 47.7545 61.5411 47.7367 61.5056C47.6856 61.4022 47.6356 61.2978 47.5878 61.1911C47.5656 61.1422 47.5456 61.0933 47.5245 61.0445C47.4834 60.9467 47.4445 60.8489 47.4067 60.7489C47.3845 60.69 47.3623 60.6311 47.3411 60.5722C47.3278 60.5345 47.3156 60.4967 47.3023 60.4589C47.2734 60.3711 47.2456 60.2833 47.2189 60.1944C47.2089 60.1622 47.1989 60.13 47.19 60.0967C47.1567 59.9767 47.1245 59.8567 47.0956 59.7344C47.09 59.7133 47.0867 59.6911 47.0811 59.67C47.0589 59.5711 47.0378 59.4711 47.0189 59.37C47.0078 59.3133 46.9989 59.2567 46.9889 59.2C46.9756 59.1233 46.9634 59.0456 46.9534 58.9678C46.9456 58.91 46.9378 58.8511 46.9311 58.7922C46.9223 58.7145 46.9134 58.6367 46.9067 58.5578C46.9011 58.4989 46.8967 58.4389 46.8923 58.3789C46.8867 58.3 46.8823 58.22 46.8789 58.14C46.8767 58.08 46.8734 58.02 46.8723 57.96C46.87 57.8778 46.87 57.7956 46.87 57.7133C46.87 57.6544 46.87 57.5956 46.8711 57.5356C46.8734 57.4489 46.8778 57.3622 46.8823 57.2756C46.8856 57.2189 46.8867 57.1622 46.8911 57.1056C46.8978 57.0089 46.9067 56.9122 46.9167 56.8145C46.9211 56.7667 46.9245 56.7189 46.93 56.6711C46.9467 56.5256 46.9667 56.3789 46.99 56.2311C47.0023 56.1578 47.0145 56.0844 47.0278 56.0111C47.1689 55.2344 47.4 54.48 47.7089 53.7567L44.7056 49.6622C44.3967 50.3856 44.1656 51.14 44.0245 51.9167C44.0111 51.99 43.9989 52.0633 43.9867 52.1367C43.9634 52.2844 43.9434 52.43 43.9267 52.5767C43.9211 52.6245 43.9178 52.6722 43.9134 52.72C43.9034 52.8178 43.8945 52.9144 43.8878 53.0111C43.8834 53.0678 43.8823 53.1245 43.8789 53.1811C43.8745 53.2678 43.87 53.3544 43.8678 53.4411C43.8667 53.5011 43.8667 53.56 43.8667 53.6189C43.8667 53.7011 43.8667 53.7833 43.8689 53.8656C43.87 53.9256 43.8734 53.9856 43.8756 54.0456C43.8789 54.1256 43.8834 54.2056 43.8889 54.2845C43.8934 54.3445 43.8978 54.4044 43.9034 54.4633C43.91 54.5422 43.9189 54.62 43.9278 54.6978C43.9345 54.7567 43.9423 54.8156 43.95 54.8733C43.9611 54.9511 43.9734 55.0278 43.9856 55.1056C43.9956 55.1622 44.0045 55.22 44.0156 55.2767C44.02 55.2989 44.0234 55.3222 44.0267 55.3433C44.0423 55.4211 44.06 55.4978 44.0767 55.5756C44.0811 55.5967 44.0856 55.6189 44.0911 55.6411C44.12 55.7633 44.1511 55.8845 44.1856 56.0033C44.1945 56.0356 44.2056 56.0689 44.2145 56.1011C44.2411 56.19 44.2678 56.2778 44.2978 56.3656C44.31 56.4033 44.3234 56.4411 44.3367 56.4789C44.3467 56.5078 44.3556 56.5367 44.3667 56.5656C44.3778 56.5967 44.3911 56.6256 44.4023 56.6556C44.44 56.7556 44.4789 56.8533 44.52 56.9511C44.5411 57 44.5611 57.0489 44.5834 57.0978C44.6311 57.2045 44.6811 57.3089 44.7323 57.4133C44.7456 57.4411 44.7578 57.4689 44.7711 57.4967C44.7756 57.5044 44.78 57.5122 44.7834 57.52C44.8489 57.6456 44.9167 57.77 44.9878 57.8922C44.9889 57.8945 44.9911 57.8978 44.9923 57.9C45.0656 58.0244 45.1423 58.1456 45.2223 58.2656C45.2267 58.2722 45.2311 58.28 45.2356 58.2867C45.3 58.3833 45.3667 58.4778 45.4356 58.5722L48.4389 62.6667C48.3667 62.5622 48.2956 62.46 48.2278 62.3567Z" fill="#E89D7D"/>
<path d="M48.4401 62.9123C48.3634 62.9123 48.2867 62.8767 48.2378 62.81L45.2345 58.7156C45.1634 58.6189 45.0945 58.52 45.0289 58.4211L45.0167 58.4023C44.9267 58.2667 44.8501 58.1434 44.7778 58.0223C44.7767 58.02 44.7723 58.0123 44.7701 58.0089C44.7023 57.8934 44.6312 57.7645 44.5623 57.63L44.5489 57.6067C44.5401 57.5889 44.5312 57.57 44.5223 57.5522C44.5178 57.5422 44.5134 57.5311 44.5078 57.5211C44.4501 57.4045 44.3989 57.2978 44.3534 57.1956C44.3323 57.1478 44.3123 57.1 44.2923 57.0522C44.2467 56.9434 44.2056 56.8423 44.1667 56.7389C44.1623 56.7267 44.1578 56.7156 44.1523 56.7034C44.1445 56.6845 44.1367 56.6656 44.1289 56.6456C44.1223 56.6267 44.1156 56.6089 44.1101 56.5911L44.0989 56.5567C44.0856 56.5178 44.0723 56.4789 44.0589 56.4389C44.0289 56.3489 44.0012 56.2578 43.9734 56.1667L43.9634 56.1323C43.9567 56.11 43.9501 56.0878 43.9434 56.0656C43.9078 55.9378 43.8745 55.8123 43.8467 55.6923L43.8323 55.6256C43.8134 55.5434 43.7956 55.4656 43.7801 55.3867C43.7778 55.3723 43.7745 55.3578 43.7723 55.3434L43.7678 55.3178C43.7578 55.2645 43.7489 55.21 43.7401 55.1567L43.7378 55.1423C43.7245 55.0634 43.7123 54.9834 43.7012 54.9034C43.6923 54.8434 43.6856 54.7834 43.6778 54.7223C43.6678 54.6423 43.6601 54.5623 43.6523 54.4811C43.6467 54.42 43.6412 54.3589 43.6367 54.2967C43.6312 54.2145 43.6267 54.1334 43.6234 54.0511C43.6212 53.99 43.6178 53.9278 43.6167 53.8667C43.6145 53.7823 43.6145 53.6978 43.6145 53.6134V53.5767C43.6145 53.5278 43.6145 53.48 43.6156 53.4311C43.6178 53.3423 43.6223 53.2534 43.6267 53.1645L43.6289 53.1123C43.6312 53.0711 43.6323 53.0311 43.6356 52.99C43.6423 52.8911 43.6523 52.7911 43.6623 52.6911L43.6678 52.6356C43.6701 52.6045 43.6734 52.5745 43.6767 52.5434C43.6945 52.3845 43.7145 52.2367 43.7378 52.0923C43.7501 52.0178 43.7623 51.9423 43.7767 51.8678C43.9189 51.0867 44.1534 50.31 44.4745 49.56C44.5101 49.4778 44.5867 49.42 44.6756 49.41C44.7645 49.4 44.8523 49.4378 44.9056 49.51L47.9089 53.6045C47.9612 53.6756 47.9723 53.7689 47.9367 53.85C47.6312 54.5656 47.4067 55.3067 47.2712 56.0511C47.2578 56.1223 47.2456 56.1945 47.2345 56.2656C47.2123 56.4034 47.1934 56.5434 47.1767 56.6934C47.1734 56.72 47.1712 56.7478 47.1689 56.7745L47.1634 56.8334C47.1545 56.9278 47.1445 57.0234 47.1378 57.1167C47.1356 57.1534 47.1334 57.19 47.1323 57.2278L47.1301 57.2823C47.1256 57.3667 47.1212 57.4511 47.1201 57.5356C47.1189 57.58 47.1189 57.6234 47.1189 57.6678V57.7089C47.1189 57.7889 47.1189 57.8689 47.1212 57.9489C47.1223 58.0078 47.1256 58.0656 47.1278 58.1234C47.1312 58.2011 47.1356 58.2789 47.1412 58.3556C47.1456 58.4134 47.1501 58.4711 47.1556 58.5289C47.1623 58.6056 47.1712 58.6811 47.1801 58.7567C47.1867 58.8134 47.1934 58.8711 47.2012 58.9278C47.2112 59.0034 47.2234 59.0778 47.2356 59.1523L47.2389 59.1711C47.2467 59.22 47.2556 59.2689 47.2645 59.3178C47.2834 59.4156 47.3034 59.5122 47.3245 59.6089L47.3378 59.6711C47.3645 59.7845 47.3956 59.9023 47.4289 60.0223L47.4567 60.1167C47.4823 60.2034 47.5089 60.2889 47.5367 60.3734C47.5489 60.41 47.5612 60.4467 47.5745 60.4834C47.5901 60.5278 47.6067 60.5711 47.6234 60.6156L47.6378 60.6545C47.6745 60.7511 47.7123 60.8467 47.7523 60.9411C47.7723 60.99 47.7923 61.0367 47.8134 61.0834C47.8556 61.1778 47.9023 61.2778 47.9578 61.3878L47.9812 61.4356C47.9901 61.4545 47.9989 61.4734 48.0089 61.4911C48.0745 61.6167 48.1412 61.7378 48.2067 61.8511C48.2089 61.8545 48.2123 61.8611 48.2134 61.8645C48.2778 61.9734 48.3501 62.0889 48.4323 62.2134C48.5056 62.3234 48.5734 62.42 48.6378 62.51C48.7189 62.6211 48.6956 62.7778 48.5845 62.86C48.5434 62.8967 48.4923 62.9123 48.4401 62.9123ZM44.7712 50.17C44.5489 50.7567 44.3812 51.3567 44.2712 51.9589C44.2578 52.03 44.2456 52.1011 44.2345 52.1734C44.2123 52.31 44.1934 52.45 44.1767 52.6023C44.1734 52.6289 44.1712 52.6556 44.1689 52.6811L44.1634 52.7423C44.1545 52.8367 44.1445 52.9323 44.1378 53.0256C44.1356 53.0623 44.1334 53.0989 44.1323 53.1356L44.1301 53.19C44.1256 53.2745 44.1212 53.3589 44.1201 53.4434C44.1189 53.4889 44.1189 53.5334 44.1189 53.5789V53.6167C44.1189 53.6967 44.1189 53.7767 44.1212 53.8567C44.1223 53.9156 44.1256 53.9734 44.1278 54.0311C44.1312 54.1089 44.1356 54.1867 44.1412 54.2634C44.1456 54.3211 44.1501 54.3789 44.1556 54.4367C44.1623 54.5134 44.1701 54.5889 44.1801 54.6645C44.1867 54.7211 44.1934 54.7789 44.2023 54.8356C44.2123 54.9111 44.2245 54.9856 44.2367 55.06L44.2389 55.0756C44.2478 55.1256 44.2556 55.1767 44.2656 55.2267L44.2767 55.2923C44.2912 55.3667 44.3078 55.44 44.3245 55.5134L44.3389 55.58C44.3656 55.6934 44.3967 55.8111 44.4301 55.9311L44.4578 56.0256C44.4834 56.1123 44.5101 56.1967 44.5378 56.2823C44.5501 56.3189 44.5623 56.3556 44.5756 56.3923L44.5901 56.4334C44.5945 56.4478 44.6001 56.4623 44.6045 56.4756C44.6089 56.4878 44.6145 56.5 44.6189 56.5134C44.6256 56.53 44.6323 56.5467 44.6389 56.5634C44.6756 56.6589 44.7134 56.7556 44.7534 56.85C44.7756 56.9034 44.7945 56.9478 44.8145 56.9923C44.8567 57.0878 44.9045 57.1878 44.9589 57.2978C44.9667 57.3134 44.9734 57.3278 44.9801 57.3434C44.9856 57.3545 44.9912 57.3667 44.9967 57.3778L45.0089 57.4C45.0745 57.5267 45.1412 57.6478 45.2067 57.76C45.2078 57.7623 45.2123 57.7689 45.2134 57.7723C45.2778 57.8823 45.3512 57.9978 45.4334 58.1234L45.4445 58.1411C45.5067 58.2356 45.5723 58.3278 45.6389 58.4189L46.9734 60.2389L46.9701 60.2278C46.9634 60.2056 46.9567 60.1834 46.9501 60.1611C46.9145 60.0334 46.8812 59.9078 46.8534 59.7878L46.8389 59.7211C46.8156 59.6189 46.7945 59.5156 46.7756 59.4123C46.7656 59.36 46.7567 59.3078 46.7478 59.2556L46.7445 59.2367C46.7312 59.1578 46.7189 59.0778 46.7078 58.9978C46.7001 58.9378 46.6923 58.8778 46.6845 58.8178C46.6745 58.7378 46.6667 58.6578 46.6589 58.5767C46.6534 58.5156 46.6478 58.4545 46.6445 58.3934C46.6389 58.3111 46.6345 58.23 46.6312 58.1478C46.6289 58.0867 46.6256 58.0245 46.6245 57.9634C46.6223 57.8789 46.6223 57.7945 46.6223 57.71V57.6689C46.6223 57.6211 46.6223 57.5745 46.6234 57.5267C46.6256 57.4378 46.6301 57.3489 46.6345 57.26L46.6367 57.2078C46.6389 57.1667 46.6401 57.1267 46.6434 57.0856C46.6501 56.9867 46.6601 56.8867 46.6701 56.7867L46.6745 56.7334C46.6767 56.7023 46.6801 56.6711 46.6834 56.64C46.7012 56.4823 46.7212 56.3356 46.7445 56.19C46.7567 56.1145 46.7689 56.04 46.7834 55.9645C46.9178 55.2289 47.1334 54.4978 47.4256 53.7889L44.7712 50.17Z" fill="#FFE1D4"/>
<path d="M59.52 26.0211L58.4956 32.4411C58.1211 32.4211 57.7411 32.4111 57.3578 32.4111C56.3334 32.4111 55.3156 32.4833 54.31 32.6245L54.9967 42.3011C55.2567 42.2822 55.5222 42.2722 55.7845 42.2722C56.17 42.2722 56.5478 42.2933 56.9167 42.3333L55.3889 51.9145H44.3456L44.7056 49.66C46.0967 46.4056 49.0634 43.8011 52.5156 42.7622L51.8334 33.1111C50.1867 33.5278 48.5878 34.1233 47.0656 34.8733L48.4778 26.0222H59.52V26.0211Z" fill="#EEB69E"/>
<path d="M55.3911 52.1644H44.3478C44.2745 52.1644 44.2056 52.1322 44.1578 52.0767C44.11 52.0211 44.09 51.9478 44.1011 51.8756L44.4611 49.6211C44.4645 49.6011 44.47 49.5811 44.4778 49.5622C45.8567 46.3367 48.8245 43.6778 52.2545 42.5822L51.6056 33.4278C50.0967 33.8311 48.6078 34.3911 47.1767 35.0967C47.0934 35.1378 46.9934 35.1289 46.9178 35.0733C46.8423 35.0178 46.8045 34.9256 46.8189 34.8333L48.2311 25.9822C48.25 25.8611 48.3556 25.7711 48.4778 25.7711H59.5211C59.5945 25.7711 59.6634 25.8033 59.7111 25.8589C59.7589 25.9145 59.7789 25.9878 59.7678 26.06L58.7434 32.48C58.7234 32.6067 58.6089 32.6967 58.4834 32.69C57.2 32.6211 55.88 32.6722 54.5778 32.84L55.23 42.0356C55.8034 42.0067 56.3878 42.0233 56.9456 42.0845C57.0134 42.0922 57.0756 42.1267 57.1167 42.1811C57.1578 42.2356 57.1756 42.3044 57.1645 42.3722L55.6367 51.9533C55.6178 52.0756 55.5134 52.1644 55.3911 52.1644ZM44.6411 51.6644H55.1778L56.63 42.5567C56.1 42.5133 55.5478 42.5111 55.0167 42.55C54.9511 42.5545 54.8856 42.5333 54.8345 42.49C54.7845 42.4467 54.7534 42.3844 54.7489 42.3189L54.0623 32.6422C54.0534 32.5111 54.1467 32.3956 54.2767 32.3767C55.6089 32.19 56.9589 32.1245 58.2845 32.1811L59.2267 26.2711H48.69L47.3867 34.44C48.8078 33.7733 50.28 33.2456 51.7711 32.8678C51.8434 32.85 51.9189 32.8645 51.9789 32.9078C52.0389 32.9511 52.0767 33.0189 52.0823 33.0922L52.7667 42.7445C52.7745 42.8611 52.7011 42.9678 52.5889 43.0011C49.2256 44.0133 46.3011 46.59 44.9489 49.73L44.6411 51.6644Z" fill="#FFE1D4"/>
<path d="M22.259 51.9144H11.2157L14.219 56.0089H25.2613H36.3057L33.3035 51.9144H22.259Z" fill="#E89D7D"/>
<path d="M36.3057 56.2589H14.219C14.139 56.2589 14.0646 56.2211 14.0179 56.1567L11.0146 52.0622C10.959 51.9867 10.9501 51.8855 10.9934 51.8011C11.0357 51.7167 11.1223 51.6644 11.2168 51.6644H33.3046C33.3846 51.6644 33.459 51.7022 33.5057 51.7667L36.509 55.8611C36.5646 55.9367 36.5734 56.0378 36.5301 56.1222C36.4868 56.2055 36.4001 56.2589 36.3057 56.2589ZM14.3457 55.7589H35.8134L33.1768 52.1644H11.709L14.3457 55.7589Z" fill="#FFE1D4"/>
<path d="M55.3912 51.9144H44.3479L47.3512 56.0089H58.3935L55.3912 51.9144Z" fill="#E89D7D"/>
<path d="M58.3934 56.2589H47.3501C47.2701 56.2589 47.1957 56.2211 47.149 56.1566L44.1457 52.0622C44.0901 51.9867 44.0812 51.8855 44.1245 51.8011C44.1668 51.7167 44.2534 51.6644 44.3479 51.6644H55.3912C55.4712 51.6644 55.5457 51.7022 55.5923 51.7667L58.5957 55.8611C58.6512 55.9366 58.6601 56.0378 58.6168 56.1222C58.5745 56.2055 58.4879 56.2589 58.3934 56.2589ZM47.4779 55.7589H57.9012L55.2645 52.1644H44.8412L47.4779 55.7589Z" fill="#FFE1D4"/>
<path d="M72.4056 40.21C72.4978 40.3556 72.5867 40.5034 72.6734 40.6534C72.6978 40.6956 72.7212 40.7378 72.7456 40.7811C72.8078 40.89 72.8689 40.9989 72.9278 41.1089C72.9567 41.1634 72.9856 41.2167 73.0145 41.2711C73.0656 41.3689 73.1156 41.4667 73.1656 41.5656C73.1989 41.6334 73.2323 41.7 73.2656 41.7678C73.3123 41.8645 73.3578 41.9623 73.4023 42.06C73.4323 42.1267 73.4634 42.1934 73.4934 42.26C73.5389 42.3634 73.5823 42.4678 73.6256 42.5723C73.6523 42.6356 73.6789 42.6978 73.7045 42.7611C73.7534 42.8823 73.8 43.0056 73.8456 43.1278C73.8634 43.1756 73.8823 43.2223 73.8989 43.2689C73.9189 43.3234 73.9367 43.3789 73.9556 43.4334C74.0034 43.5689 74.05 43.7045 74.0945 43.8423C74.1178 43.9156 74.1389 43.9889 74.1623 44.0634C74.1989 44.1834 74.2356 44.3034 74.27 44.4245C74.2923 44.5056 74.3134 44.5867 74.3356 44.6678C74.3667 44.7834 74.3967 44.9 74.4245 45.0167C74.4445 45.1011 74.4645 45.1867 74.4834 45.2723C74.5089 45.3878 74.5345 45.5034 74.5578 45.6189C74.5778 45.7189 74.5978 45.82 74.6167 45.92C74.6312 45.9956 74.6445 46.0711 74.6578 46.1478C74.6767 46.2611 74.6945 46.3745 74.7112 46.4878C74.7223 46.56 74.7334 46.6334 74.7434 46.7056C74.76 46.8311 74.7756 46.9578 74.79 47.0845C74.7967 47.1467 74.8056 47.2078 74.8123 47.27C74.8323 47.4589 74.8489 47.6489 74.8623 47.84L77.8656 51.9345C77.8523 51.7434 77.8345 51.5534 77.8156 51.3645C77.8089 51.3023 77.8012 51.2411 77.7945 51.18C77.7801 51.0534 77.7645 50.9267 77.7478 50.8C77.7378 50.7278 77.7267 50.6556 77.7156 50.5834C77.6989 50.4689 77.6812 50.3556 77.6612 50.2423C77.6478 50.1667 77.6345 50.0911 77.62 50.0145C77.6089 49.9534 77.5989 49.8911 77.5867 49.83C77.5789 49.7911 77.5689 49.7523 77.5612 49.7134C77.5378 49.5967 77.5123 49.4811 77.4867 49.3667C77.4678 49.2811 77.4489 49.1967 77.4278 49.1111C77.4 48.9945 77.3689 48.8778 77.3389 48.7623C77.3178 48.6811 77.2967 48.6 77.2734 48.5189C77.2389 48.3978 77.2023 48.2778 77.1667 48.1589C77.1445 48.0845 77.1223 48.01 77.0989 47.9367C77.0545 47.8 77.0078 47.6645 76.96 47.5289C76.9434 47.48 76.9278 47.43 76.91 47.3823C76.9078 47.3756 76.9056 47.37 76.9034 47.3645C76.8867 47.3167 76.8678 47.2711 76.8501 47.2234C76.8045 47.1 76.7578 46.9778 76.7089 46.8556C76.6834 46.7923 76.6567 46.7311 76.6312 46.6678C76.5878 46.5634 76.5434 46.4589 76.4978 46.3545C76.4678 46.2878 76.4378 46.2211 76.4067 46.1545C76.3623 46.0567 76.3167 45.9589 76.27 45.8623C76.2378 45.7945 76.2034 45.7267 76.1701 45.66C76.1456 45.6111 76.1223 45.5623 76.0978 45.5134C76.0723 45.4634 76.0445 45.4145 76.0189 45.3645C75.99 45.31 75.9623 45.2556 75.9323 45.2023C75.8723 45.0923 75.8112 44.9834 75.75 44.8745C75.7256 44.8323 75.7023 44.7889 75.6778 44.7467C75.5912 44.5978 75.5012 44.45 75.41 44.3034C75.3956 44.28 75.38 44.2578 75.3656 44.2345C75.3012 44.1334 75.2367 44.0323 75.1701 43.9323C75.1589 43.9167 75.1478 43.9011 75.1367 43.8856C75.0178 43.7089 74.8967 43.5356 74.7712 43.3634L71.7678 39.2689C71.8934 39.44 72.0145 39.6145 72.1334 39.79C72.2112 39.9056 72.2867 40.0211 72.3623 40.1389C72.3756 40.1634 72.3912 40.1867 72.4056 40.21Z" fill="#E89D7D"/>
<path d="M77.8656 52.1833C77.7878 52.1833 77.7122 52.1467 77.6645 52.0811L74.6611 47.9867C74.6334 47.9489 74.6167 47.9033 74.6134 47.8567C74.6 47.6756 74.5845 47.4922 74.5634 47.2945C74.56 47.2578 74.5556 47.2211 74.5511 47.1856L74.5422 47.1122C74.5278 46.9878 74.5134 46.8622 74.4967 46.7389C74.49 46.6889 74.4822 46.6389 74.4745 46.59L74.4645 46.5245C74.4478 46.4122 74.43 46.3 74.4111 46.1889C74.3978 46.1145 74.3845 46.04 74.3711 45.9645C74.3522 45.8645 74.3334 45.7656 74.3134 45.6678C74.29 45.5533 74.2656 45.44 74.24 45.3256L74.2367 45.31C74.2189 45.2311 74.2011 45.1533 74.1822 45.0745C74.1545 44.9589 74.1245 44.8445 74.0945 44.7311L74.0778 44.6656C74.0622 44.6078 74.0467 44.5489 74.0311 44.4911C73.9978 44.3711 73.9611 44.2533 73.9256 44.1356L73.9022 44.0578C73.8878 44.0111 73.8745 43.9645 73.8589 43.9178C73.8156 43.7822 73.7689 43.6489 73.7222 43.5156L73.6978 43.4445C73.6878 43.4145 73.6778 43.3845 73.6667 43.3545C73.6567 43.3278 73.6478 43.3022 73.6378 43.2767L73.6145 43.2145C73.5689 43.0933 73.5234 42.9722 73.4756 42.8533C73.4589 42.8122 73.4422 42.7722 73.4245 42.7311L73.3978 42.6678C73.3556 42.5656 73.3122 42.4622 73.2667 42.3611C73.2434 42.3089 73.2189 42.2567 73.1956 42.2045L73.1778 42.1645C73.1334 42.0678 73.0889 41.9722 73.0434 41.8767C73.0111 41.81 72.9778 41.7433 72.9445 41.6767C72.8956 41.58 72.8467 41.4822 72.7956 41.3867C72.7678 41.3333 72.7389 41.28 72.7111 41.2267C72.6522 41.1178 72.5922 41.0111 72.5311 40.9045L72.5011 40.85C72.4878 40.8267 72.4745 40.8022 72.46 40.7789C72.3689 40.6222 72.2822 40.48 72.1967 40.3433L72.1534 40.2756C72.08 40.16 72.0045 40.0456 71.9278 39.9311C71.8 39.7411 71.6822 39.5733 71.5678 39.4178C71.4867 39.3067 71.51 39.15 71.6211 39.0689C71.7322 38.9878 71.8889 39.0111 71.9711 39.1222L71.9722 39.1233L74.9745 43.2156C75.0922 43.3756 75.2134 43.5489 75.3456 43.7456L75.3567 43.7622C75.3645 43.7733 75.3722 43.7833 75.3789 43.7945C75.4456 43.8945 75.5122 43.9978 75.5767 44.1L75.6222 44.1711C75.7122 44.3145 75.8011 44.4611 75.8945 44.6211C75.91 44.6478 75.9256 44.6756 75.9411 44.7033L75.9678 44.75C76.0311 44.86 76.0922 44.9711 76.1534 45.0822C76.1834 45.1367 76.2122 45.1922 76.2411 45.2478L76.2722 45.3056C76.2889 45.3367 76.3056 45.3678 76.3222 45.3989C76.3378 45.4289 76.3522 45.4589 76.3667 45.4889L76.3956 45.5478C76.43 45.6156 76.4634 45.6845 76.4967 45.7533C76.5445 45.8522 76.59 45.9511 76.6356 46.05L76.6534 46.0878C76.6789 46.1422 76.7034 46.1978 76.7278 46.2522C76.7745 46.3578 76.8189 46.4633 76.8634 46.57L76.89 46.6333C76.9078 46.6756 76.9256 46.7178 76.9434 46.7611C76.9934 46.8845 77.04 47.01 77.0867 47.1345L77.1078 47.19C77.1189 47.2189 77.13 47.2478 77.1411 47.2767L77.1478 47.2956C77.1578 47.3245 77.1678 47.3533 77.1778 47.3833C77.1845 47.4033 77.1911 47.4245 77.1989 47.4445C77.2467 47.5822 77.2945 47.7189 77.34 47.8578C77.3556 47.9078 77.3711 47.9578 77.3867 48.0078L77.4089 48.0822C77.4456 48.2033 77.4834 48.3256 77.5178 48.4478C77.5345 48.5078 77.5511 48.5689 77.5667 48.63L77.5834 48.6945C77.6145 48.8122 77.6456 48.93 77.6745 49.0489C77.6945 49.13 77.7122 49.2111 77.73 49.2922L77.7334 49.3078C77.76 49.4245 77.7856 49.5422 77.8089 49.66L77.82 49.71C77.8256 49.7333 77.83 49.7556 77.8345 49.7789C77.8422 49.8167 77.8489 49.8545 77.8545 49.8922L77.87 49.98C77.8834 50.0522 77.8967 50.1245 77.9089 50.1978C77.9289 50.3122 77.9467 50.4278 77.9634 50.5445L77.9734 50.6089C77.9811 50.66 77.9889 50.7122 77.9967 50.7645C78.0145 50.8922 78.0289 51.0211 78.0445 51.15L78.0522 51.2189C78.0567 51.2578 78.0622 51.2978 78.0656 51.3367C78.0867 51.5411 78.1034 51.73 78.1167 51.9156C78.1245 52.0267 78.0578 52.13 77.9534 52.1678C77.9234 52.1778 77.8945 52.1833 77.8656 52.1833ZM75.1067 47.7489L77.5267 51.0489C77.5178 50.9767 77.5089 50.9045 77.4989 50.8322C77.4922 50.7833 77.4845 50.7333 77.4767 50.6845L77.4667 50.6178C77.45 50.5056 77.4322 50.3933 77.4134 50.2822C77.4011 50.2111 77.3889 50.1411 77.3756 50.0711L77.3589 49.9789C77.3534 49.9445 77.3467 49.91 77.34 49.8767C77.3367 49.8578 77.3322 49.84 77.3278 49.8211C77.3234 49.8011 77.3189 49.7811 77.3145 49.7611C77.2911 49.6467 77.2667 49.5333 77.2411 49.4189L77.2378 49.4033C77.22 49.3245 77.2022 49.2467 77.1834 49.1678C77.1556 49.0522 77.1256 48.9378 77.0956 48.8245L77.0789 48.7589C77.0634 48.7011 77.0478 48.6422 77.0322 48.5845C76.9989 48.4656 76.9622 48.3478 76.9267 48.23L76.9034 48.1522C76.8889 48.1056 76.8756 48.0578 76.86 48.0111C76.8167 47.8756 76.77 47.7422 76.7234 47.61C76.7156 47.5867 76.7078 47.5633 76.7 47.54C76.6911 47.5145 76.6834 47.49 76.6745 47.4645L76.6678 47.4456C76.6589 47.42 76.6489 47.3945 76.6389 47.3689L76.6156 47.3078C76.57 47.1867 76.5245 47.0656 76.4767 46.9456C76.46 46.9056 76.4434 46.8656 76.4267 46.8256L76.3989 46.76C76.3556 46.6567 76.3134 46.5545 76.2678 46.4522C76.2445 46.3989 76.22 46.3467 76.1956 46.2945L76.1778 46.2556C76.1334 46.1589 76.0889 46.0633 76.0434 45.9678C76.0111 45.9011 75.9778 45.8345 75.9456 45.7689L75.9145 45.7056C75.9011 45.6789 75.8889 45.6522 75.8745 45.6256C75.86 45.5967 75.8445 45.5689 75.83 45.5411L75.7978 45.48C75.77 45.4267 75.7411 45.3733 75.7134 45.32C75.6545 45.2111 75.5945 45.1045 75.5334 44.9978L75.5056 44.9478C75.4911 44.9222 75.4767 44.8978 75.4622 44.8722C75.3711 44.7167 75.2856 44.5745 75.1978 44.4356L75.1534 44.3678C75.09 44.2678 75.0267 44.1689 74.9611 44.0711L74.9289 44.0245C74.8 43.8333 74.6822 43.6656 74.5689 43.5111L73.9222 42.63C73.9267 42.6422 73.9322 42.6533 73.9367 42.6656C73.9867 42.7889 74.0334 42.9133 74.08 43.0378L74.1011 43.0945C74.1122 43.1233 74.1234 43.1522 74.1345 43.1811C74.1467 43.2145 74.1578 43.2478 74.1689 43.2822L74.1911 43.3478C74.24 43.4856 74.2878 43.6233 74.3322 43.7622C74.3478 43.8122 74.3634 43.8622 74.3778 43.9111L74.4 43.9856C74.4378 44.1067 74.4745 44.2289 74.5089 44.3522C74.5256 44.4122 74.5422 44.4733 74.5578 44.5356L74.5745 44.6C74.6056 44.7178 74.6367 44.8356 74.6656 44.9545C74.6856 45.0356 74.7034 45.1167 74.7211 45.1978L74.7245 45.2133C74.7511 45.33 74.7767 45.4478 74.8 45.5656C74.8211 45.6678 74.84 45.7689 74.8589 45.8711C74.8734 45.9478 74.8867 46.0245 74.9 46.1011C74.92 46.2156 74.9378 46.3311 74.9545 46.4467L74.9645 46.5111C74.9722 46.5633 74.98 46.6156 74.9878 46.6678C75.0056 46.7956 75.02 46.9233 75.0345 47.0522L75.0422 47.1222C75.0467 47.1611 75.0522 47.2011 75.0556 47.24C75.0789 47.4189 75.0945 47.5856 75.1067 47.7489Z" fill="#FFE1D4"/>
<path d="M74.8622 47.8389L77.8655 51.9333L67.5478 54.2455L64.5455 50.1511L74.8622 47.8389Z" fill="#E89D7D"/>
<path d="M67.5478 54.4955C67.4689 54.4955 67.3944 54.4589 67.3467 54.3933L64.3433 50.2989C64.2933 50.2311 64.2811 50.1422 64.3111 50.0633C64.3411 49.9844 64.4078 49.9255 64.49 49.9066L74.8067 47.5944C74.9044 47.5722 75.0044 47.61 75.0633 47.69L78.0667 51.7844C78.1167 51.8522 78.1289 51.9411 78.0989 52.02C78.0689 52.0989 78.0022 52.1578 77.92 52.1767L67.6033 54.4889C67.5844 54.4933 67.5667 54.4955 67.5478 54.4955ZM64.9733 50.3111L67.6533 53.9655L77.4378 51.7722L74.7578 48.1178L64.9733 50.3111Z" fill="#FFE1D4"/>
<path d="M50.1589 61.6933L53.1623 65.7877L49.0301 75.3255L46.0278 71.2311L50.1589 61.6933Z" fill="#E89D7D"/>
<path d="M49.0301 75.5755C48.9512 75.5755 48.8756 75.5378 48.829 75.4733L45.8256 71.3789C45.7734 71.3078 45.7623 71.2133 45.7979 71.1311L49.929 61.5933C49.9645 61.5111 50.0412 61.4544 50.1301 61.4444C50.219 61.4344 50.3067 61.4733 50.3601 61.5455L53.3634 65.64C53.4156 65.7111 53.4267 65.8055 53.3912 65.8878L49.2601 75.4255C49.2245 75.5078 49.1479 75.5644 49.059 75.5744C49.049 75.5744 49.0401 75.5755 49.0301 75.5755ZM46.3134 71.1989L48.9734 74.8266L52.8745 65.82L50.2145 62.1922L46.3134 71.1989Z" fill="#FFE1D4"/>
<path d="M39.6623 69.0934L36.6589 64.9989C38.8567 67.9956 42.0978 70.2078 46.0267 71.2311L49.03 75.3256C45.1023 74.3022 41.8612 72.09 39.6623 69.0934Z" fill="#E89D7D"/>
<path d="M49.0301 75.5756C49.0089 75.5756 48.9878 75.5733 48.9667 75.5678C45.0323 74.5433 41.7445 72.3556 39.4601 69.2411L36.4567 65.1467C36.3756 65.0356 36.3989 64.8789 36.51 64.7967C36.6212 64.7144 36.7778 64.7389 36.86 64.85C39.0756 67.87 42.2667 69.9933 46.0889 70.9878C46.1445 71.0022 46.1934 71.0356 46.2278 71.0822L49.2312 75.1767C49.2934 75.2622 49.2956 75.3778 49.2367 75.4644C49.1901 75.5356 49.1123 75.5756 49.0301 75.5756ZM39.2334 68.0856L39.8634 68.9456C41.9434 71.7811 44.8834 73.8256 48.3989 74.8889L45.8767 71.4511C43.3656 70.7833 41.12 69.6411 39.2334 68.0856Z" fill="#FFE1D4"/>
<mask id="mask0_3004_53598" style="mask-type:luminance" maskUnits="userSpaceOnUse" x="36" y="64" width="14" height="12">
<mask id="mask1_3004_53598" style="mask-type:luminance" maskUnits="userSpaceOnUse" x="36" y="64" width="14" height="12">
<path d="M39.6623 69.0934L36.6589 64.9989C38.8567 67.9956 42.0978 70.2078 46.0267 71.2311L49.03 75.3256C45.1023 74.3022 41.8612 72.09 39.6623 69.0934Z" fill="white"/>
</mask>
<g mask="url(#mask1_3004_53598)">
<path d="M49.0301 75.5756C49.0089 75.5756 48.9878 75.5733 48.9667 75.5678C45.0323 74.5433 41.7445 72.3556 39.4601 69.2411L36.4567 65.1467C36.3756 65.0356 36.3989 64.8789 36.51 64.7967C36.6212 64.7144 36.7778 64.7389 36.86 64.85C39.0756 67.87 42.2667 69.9933 46.0889 70.9878C46.1445 71.0022 46.1934 71.0356 46.2278 71.0822L49.2312 75.1767C49.2934 75.2622 49.2956 75.3778 49.2367 75.4644C49.1901 75.5356 49.1123 75.5756 49.0301 75.5756ZM39.2334 68.0856L39.8634 68.9456C41.9434 71.7811 44.8834 73.8256 48.3989 74.8889L45.8767 71.4511C43.3656 70.7833 41.12 69.6411 39.2334 68.0856Z" fill="white"/>
</g>
</mask>
<g mask="url(#mask0_3004_53598)">
<path d="M46.0278 71.2311L49.0311 75.3256C45.1023 74.3033 41.8611 72.09 39.6634 69.0934L36.66 64.9989C38.8578 67.9956 42.0989 70.2078 46.0278 71.2311Z" fill="#E89D7D"/>
<path d="M49.0301 75.5756C49.0089 75.5756 48.9878 75.5733 48.9667 75.5678C45.0323 74.5433 41.7445 72.3556 39.4601 69.2411L36.4567 65.1467C36.3756 65.0356 36.3989 64.8789 36.51 64.7967C36.6212 64.7144 36.7778 64.7389 36.86 64.85C39.0756 67.87 42.2667 69.9933 46.0889 70.9878C46.1445 71.0022 46.1934 71.0356 46.2278 71.0822L49.2312 75.1767C49.2934 75.2622 49.2956 75.3778 49.2367 75.4644C49.1901 75.5356 49.1123 75.5756 49.0301 75.5756ZM39.2334 68.0856L39.8634 68.9456C41.9434 71.7811 44.8834 73.8256 48.3989 74.8889L45.8767 71.4511C43.3656 70.7833 41.12 69.6411 39.2334 68.0856Z" fill="#FFE1D4"/>
</g>
<path d="M74.8733 50.1844C74.8378 50.8267 74.7689 51.4756 74.6633 52.1345C72.9267 63.0256 62.3589 71.8567 51.0678 71.8567C50.1422 71.8567 49.2422 71.7978 48.3689 71.6833L52.5667 61.9967H52.64C58.1456 61.9967 63.3056 57.7978 64.3656 52.5389L74.8733 50.1844Z" fill="#EEB69E"/>
<path d="M51.0678 72.1067C50.1389 72.1067 49.22 72.0478 48.3356 71.9311C48.2578 71.9211 48.1889 71.8745 48.1511 71.8067C48.1123 71.7389 48.1078 71.6556 48.1389 71.5845L52.3367 61.8978C52.3767 61.8067 52.4667 61.7467 52.5656 61.7467H52.6389C58.03 61.7467 63.0734 57.6811 64.1189 52.49C64.1389 52.3934 64.2134 52.3167 64.3089 52.2956L74.8167 49.9411C74.8934 49.9245 74.9734 49.9434 75.0334 49.9945C75.0934 50.0456 75.1256 50.1211 75.1211 50.1989C75.0856 50.8511 75.0145 51.5156 74.9089 52.1745C73.1578 63.1645 62.4623 72.1067 51.0678 72.1067ZM48.7311 71.4756C49.4911 71.5623 50.2756 71.6067 51.0678 71.6067C62.2267 71.6067 72.7011 62.8534 74.4167 52.0945C74.5011 51.5634 74.5634 51.0289 74.6023 50.5L64.5778 52.7467C63.4223 58.0567 58.2623 62.2 52.7311 62.2445L48.7311 71.4756Z" fill="#FFE1D4"/>
<path d="M76.3613 60.8556C76.4235 60.7033 76.4835 60.5511 76.5424 60.3978C76.5601 60.3511 76.5779 60.3056 76.5957 60.2589C76.669 60.0645 76.739 59.8678 76.8068 59.6711C76.8213 59.6278 76.8357 59.5833 76.8501 59.5389C76.9035 59.3811 76.9546 59.2222 77.0035 59.0633C77.0224 59.0033 77.0401 58.9433 77.0579 58.8833C77.109 58.7133 77.1579 58.5422 77.2046 58.3711C77.2135 58.3389 77.2235 58.3056 77.2324 58.2733C77.2857 58.0711 77.3368 57.8689 77.3846 57.6644C77.3968 57.61 77.409 57.5567 77.4213 57.5022C77.4568 57.3456 77.4901 57.1878 77.5224 57.03C77.5346 56.97 77.5468 56.9111 77.5579 56.8511C77.5979 56.6444 77.6357 56.4367 77.6679 56.2289C77.7735 55.57 77.8424 54.92 77.8768 54.2789L74.8735 50.1844C74.8379 50.8267 74.769 51.4756 74.6646 52.1345C74.6313 52.3433 74.5935 52.55 74.5546 52.7567C74.5435 52.8167 74.5313 52.8756 74.519 52.9356C74.4868 53.0933 74.4535 53.2511 74.4179 53.4078C74.4057 53.4622 74.3935 53.5156 74.3813 53.57C74.3335 53.7733 74.2835 53.9767 74.229 54.1789C74.2201 54.2111 74.2113 54.2433 74.2024 54.2767C74.1557 54.4478 74.1068 54.6189 74.0557 54.7889C74.0379 54.8489 74.019 54.9089 74.0013 54.9689C73.9524 55.1278 73.9013 55.2867 73.8479 55.4445C73.8335 55.4889 73.819 55.5322 73.8046 55.5767C73.7368 55.7733 73.6668 55.97 73.5935 56.1644C73.5757 56.2111 73.5579 56.2567 73.5401 56.3033C73.4813 56.4567 73.4213 56.6089 73.359 56.7611C73.3357 56.8189 73.3113 56.8767 73.2879 56.9344C73.2168 57.1033 73.1446 57.2722 73.069 57.44C73.0579 57.4645 73.0479 57.4889 73.0368 57.5133C72.9501 57.7056 72.859 57.8967 72.7668 58.0867C72.7413 58.1378 72.7157 58.19 72.6901 58.2411C72.6168 58.3878 72.5424 58.5333 72.4668 58.6789C72.4401 58.73 72.4146 58.78 72.3868 58.8311C72.2879 59.0178 72.1857 59.2022 72.0813 59.3856C72.0668 59.41 72.0524 59.4345 72.039 59.4589C71.9468 59.62 71.8524 59.78 71.7557 59.9389C71.719 59.9989 71.6824 60.0589 71.6457 60.1178C71.589 60.21 71.5313 60.3011 71.4724 60.3933C71.4313 60.4578 71.3901 60.5211 71.349 60.5856C71.289 60.6778 71.2279 60.77 71.1657 60.8611C71.1246 60.9222 71.0835 60.9833 71.0424 61.0445C70.9768 61.14 70.909 61.2356 70.8424 61.3311C70.8035 61.3867 70.7646 61.4411 70.7257 61.4967C70.6435 61.61 70.5613 61.7222 70.4768 61.8345C70.4513 61.8678 70.4268 61.9022 70.4013 61.9367C70.1924 62.2145 69.9768 62.4878 69.7546 62.7567C69.7524 62.7589 69.7513 62.7611 69.749 62.7633C69.5257 63.0345 69.2968 63.3 69.0624 63.5611C69.0568 63.5667 69.0524 63.5722 69.0468 63.5778C68.8279 63.8211 68.6046 64.06 68.3757 64.2956C68.3724 64.2989 68.369 64.3033 68.3646 64.3067C68.139 64.5389 67.9079 64.7667 67.6724 64.99C67.6601 65.0011 67.649 65.0133 67.6368 65.0244C67.4135 65.2367 67.1846 65.4445 66.9535 65.6478C66.9324 65.6667 66.9113 65.6856 66.889 65.7045C66.6635 65.9022 66.4335 66.0956 66.2001 66.2856C66.1724 66.3089 66.1435 66.3322 66.1157 66.3545C65.8813 66.5445 65.6424 66.7289 65.4013 66.91C65.369 66.9333 65.3379 66.9578 65.3057 66.9811C65.0657 67.16 64.8224 67.3344 64.5757 67.5044C64.5424 67.5278 64.5079 67.5511 64.4746 67.5744C64.2135 67.7533 63.9479 67.9267 63.6801 68.0967C63.6479 68.1167 63.6168 68.1378 63.5846 68.1578C63.3135 68.3267 63.039 68.4911 62.7624 68.65C62.7246 68.6711 62.6879 68.6933 62.6501 68.7145C62.5424 68.7756 62.4335 68.8356 62.3257 68.8944C62.2701 68.9244 62.2157 68.9556 62.1601 68.9856C62.0079 69.0667 61.8557 69.1478 61.7024 69.2256C61.6901 69.2322 61.6779 69.2389 61.6657 69.2456C61.5001 69.33 61.3324 69.4122 61.1646 69.4933C61.1124 69.5189 61.059 69.5422 61.0068 69.5678C60.8913 69.6222 60.7746 69.6778 60.6579 69.73C60.6068 69.7533 60.5546 69.7756 60.5024 69.7989C60.3501 69.8667 60.1979 69.9333 60.0435 69.9978C59.9868 70.0222 59.9301 70.0456 59.8735 70.0689C59.6768 70.15 59.4801 70.23 59.2824 70.3056C59.2801 70.3067 59.2779 70.3078 59.2757 70.3078C59.0757 70.3845 58.8735 70.4578 58.6713 70.5289C58.6135 70.5489 58.5557 70.5689 58.499 70.5889C58.3424 70.6433 58.1846 70.6956 58.0257 70.7467C57.9757 70.7622 57.9257 70.7789 57.8746 70.7956C57.6357 70.8711 57.3946 70.9422 57.1524 71.01C57.1024 71.0245 57.0535 71.0378 57.0035 71.0511C56.7557 71.1189 56.5068 71.1833 56.2568 71.2433C56.2413 71.2467 56.2257 71.25 56.2113 71.2533C55.969 71.31 55.7268 71.3622 55.4835 71.4122C55.439 71.4211 55.3935 71.4311 55.349 71.44C55.1024 71.4878 54.8546 71.5322 54.6068 71.5722C54.5568 71.58 54.5079 71.5878 54.4579 71.5956C54.2024 71.6356 53.9457 71.6722 53.6879 71.7022C53.679 71.7033 53.6701 71.7044 53.6613 71.7056C53.409 71.7356 53.1568 71.76 52.9035 71.7811C52.8557 71.7856 52.8079 71.79 52.759 71.7933C52.5079 71.8133 52.2557 71.8278 52.0035 71.8389C51.9546 71.8411 51.9046 71.8422 51.8546 71.8444C51.5924 71.8544 51.3301 71.86 51.0668 71.86C50.1413 71.86 49.2413 71.8011 48.3679 71.6867L51.3724 75.7778C52.2457 75.8933 53.1457 75.9511 54.0713 75.9511C54.3346 75.9511 54.5968 75.9445 54.859 75.9356C54.909 75.9333 54.9579 75.9322 55.0079 75.93C55.2601 75.9189 55.5124 75.9045 55.7635 75.8845C55.8113 75.8811 55.859 75.8767 55.9079 75.8722C56.1613 75.8511 56.4135 75.8267 56.6657 75.7967C56.6746 75.7956 56.6835 75.7945 56.6924 75.7933C56.9501 75.7622 57.2057 75.7256 57.4613 75.6867C57.5113 75.6789 57.5613 75.6711 57.6113 75.6633C57.859 75.6233 58.1068 75.5789 58.3524 75.5311C58.3979 75.5222 58.4435 75.5122 58.4879 75.5033C58.7313 75.4545 58.9735 75.4022 59.2146 75.3456C59.2301 75.3422 59.2468 75.3389 59.2624 75.3345C59.5124 75.2756 59.7601 75.21 60.0079 75.1422C60.0579 75.1289 60.1079 75.1156 60.1568 75.1011C60.3979 75.0333 60.639 74.9622 60.8779 74.8867C60.8924 74.8822 60.9079 74.8778 60.9224 74.8733C60.9579 74.8622 60.9935 74.8489 61.0301 74.8378C61.1879 74.7867 61.3446 74.7345 61.5013 74.6811C61.559 74.6611 61.6168 74.6411 61.6746 74.6211C61.8768 74.55 62.0779 74.4767 62.279 74.4C62.2824 74.3989 62.2857 74.3978 62.289 74.3967C62.4868 74.3211 62.6824 74.2422 62.8779 74.1611C62.9346 74.1378 62.9924 74.1133 63.049 74.0889C63.2024 74.0245 63.3535 73.9578 63.5057 73.8911C63.5401 73.8756 63.5746 73.8622 63.609 73.8467C63.6268 73.8389 63.6446 73.83 63.6624 73.8211C63.7779 73.7689 63.8935 73.7145 64.0079 73.66C64.0613 73.6345 64.1157 73.61 64.169 73.5845C64.3368 73.5033 64.5035 73.4211 64.6701 73.3367C64.6824 73.33 64.6946 73.3233 64.7068 73.3178C64.8601 73.2389 65.0135 73.1589 65.1646 73.0778C65.2201 73.0478 65.2746 73.0178 65.329 72.9867C65.4379 72.9278 65.5457 72.8678 65.6535 72.8067C65.6724 72.7956 65.6913 72.7867 65.709 72.7756C65.7279 72.7645 65.7457 72.7533 65.7646 72.7422C66.0413 72.5833 66.3157 72.42 66.5868 72.2511C66.619 72.2311 66.6513 72.21 66.6835 72.19C66.9513 72.0211 67.2157 71.8478 67.4768 71.6689C67.4913 71.6589 67.5057 71.65 67.5201 71.6411C67.5401 71.6278 67.559 71.6122 67.579 71.5989C67.8257 71.4289 68.069 71.2545 68.309 71.0767C68.3413 71.0533 68.3724 71.0289 68.4035 71.0056C68.6446 70.8244 68.8835 70.6389 69.1179 70.45C69.1279 70.4422 69.139 70.4333 69.1501 70.4256C69.1679 70.4111 69.1846 70.3956 69.2035 70.3811C69.4368 70.1911 69.6668 69.9978 69.8924 69.8C69.9135 69.7811 69.9346 69.7622 69.9557 69.7433C70.1868 69.5389 70.4157 69.3322 70.639 69.12C70.6424 69.1167 70.6457 69.1133 70.6501 69.11C70.659 69.1022 70.6668 69.0933 70.6757 69.0856C70.9101 68.8622 71.1413 68.6345 71.3679 68.4022C71.3713 68.3989 71.3746 68.3945 71.379 68.3911C71.6079 68.1567 71.8313 67.9167 72.0501 67.6745C72.0535 67.67 72.0579 67.6667 72.0613 67.6622C72.0624 67.6611 72.0635 67.6589 72.0646 67.6578C72.299 67.3967 72.5279 67.13 72.7513 66.86C72.7535 66.8578 72.7546 66.8556 72.7568 66.8533C72.9779 66.5844 73.1935 66.3111 73.4035 66.0333C73.4057 66.0311 73.4079 66.0289 73.409 66.0256C73.4324 65.9944 73.4546 65.9633 73.4779 65.9322C73.5613 65.82 73.6457 65.7067 73.7268 65.5933C73.7657 65.5389 73.8035 65.4845 73.8424 65.43C73.9101 65.3345 73.9779 65.2389 74.0435 65.1422C74.0846 65.0822 74.1257 65.0211 74.1668 64.96C74.2279 64.8678 74.2901 64.7767 74.3501 64.6833C74.3924 64.62 74.4335 64.5556 74.4735 64.4911C74.5313 64.4 74.589 64.3089 74.6457 64.2167C74.6679 64.1811 74.6901 64.1467 74.7113 64.1122C74.7268 64.0878 74.7401 64.0622 74.7557 64.0378C74.8524 63.8789 74.9468 63.7189 75.039 63.5578C75.0535 63.5333 75.0679 63.5089 75.0813 63.4844C75.1857 63.3011 75.2868 63.1156 75.3868 62.93C75.4135 62.88 75.4401 62.8289 75.4668 62.7778C75.5435 62.6322 75.6179 62.4867 75.6901 62.34C75.7157 62.2889 75.7413 62.2378 75.7668 62.1856C75.859 61.9956 75.9501 61.8045 76.0368 61.6122C76.039 61.6078 76.0413 61.6033 76.0435 61.5989C76.0524 61.5789 76.0601 61.5589 76.069 61.5389C76.1446 61.3711 76.2168 61.2022 76.2879 61.0333C76.3146 60.9711 76.3379 60.9133 76.3613 60.8556Z" fill="#E89D7D"/>
<path d="M54.0712 76.2011C53.1423 76.2011 52.2234 76.1422 51.339 76.0255C51.2712 76.0166 51.2101 75.98 51.1701 75.9255L48.1668 71.8311C48.1079 71.75 48.1023 71.6422 48.1534 71.5555C48.2045 71.4689 48.3012 71.4222 48.4012 71.4355C49.2645 71.55 50.1612 71.6067 51.0679 71.6067C51.3023 71.6067 51.549 71.6022 51.8468 71.5911L51.9934 71.5855C52.2423 71.5744 52.4945 71.56 52.7401 71.5411L52.8823 71.5289C53.1568 71.5055 53.4023 71.4811 53.6323 71.4544C53.6334 71.4544 53.6434 71.4533 53.6445 71.4533L53.6579 71.4522C53.8867 71.4244 54.1356 71.39 54.419 71.3467L54.5667 71.3233C54.8134 71.2833 55.0612 71.2389 55.3012 71.1922L55.4345 71.1655C55.6934 71.1133 55.929 71.0622 56.1545 71.0089L56.2001 70.9989C56.4268 70.9444 56.6679 70.8833 56.9379 70.8089L57.0845 70.7689C57.3301 70.7 57.5701 70.6289 57.799 70.5567L57.9479 70.5089C58.1045 70.4589 58.2601 70.4067 58.4156 70.3533L58.429 70.3489C58.4823 70.3311 58.5345 70.3122 58.5868 70.2944C58.8156 70.2133 59.0056 70.1433 59.1856 70.0755C59.3679 70.0055 59.559 69.9289 59.7779 69.8389C59.829 69.8178 59.8812 69.7955 59.9323 69.7744L59.9456 69.7689C60.0979 69.7044 60.249 69.6389 60.4001 69.5722L60.5534 69.5033C60.669 69.4511 60.7845 69.3967 60.899 69.3422L60.9656 69.3111C60.9956 69.2967 61.0256 69.2833 61.0556 69.2689C61.2223 69.1889 61.3879 69.1067 61.5523 69.0233L61.5879 69.0044C61.7412 68.9255 61.8923 68.8467 62.0423 68.7655C62.0779 68.7467 62.1134 68.7267 62.1479 68.7078L62.2045 68.6767C62.3123 68.6178 62.4201 68.5589 62.5268 68.4978L62.6379 68.4344C62.9168 68.2744 63.1912 68.11 63.4523 67.9478L63.5479 67.8878C63.8156 67.7189 64.0801 67.5455 64.3345 67.3711L64.4356 67.3011C64.6868 67.1278 64.9301 66.9533 65.1579 66.7833L65.2523 66.7122C65.4979 66.5278 65.7356 66.3433 65.9601 66.1611L66.0445 66.0922C66.289 65.8933 66.5123 65.7044 66.7268 65.5167L66.7901 65.46C67.0334 65.2455 67.2545 65.0444 67.4668 64.8422L67.5012 64.8089C67.7412 64.5811 67.9723 64.3533 68.1868 64.1322L68.3768 64.2955L68.1979 64.1211C68.4234 63.89 68.6468 63.6511 68.8623 63.4111C68.8634 63.41 68.8701 63.4022 68.8712 63.4011C69.1101 63.1355 69.339 62.87 69.5568 62.6044C69.779 62.3344 69.9945 62.0611 70.2012 61.7867L70.2756 61.6855C70.359 61.5744 70.4412 61.4633 70.5212 61.3511C70.5456 61.3167 70.5712 61.2811 70.5956 61.2466L70.6368 61.1878C70.7034 61.0933 70.7701 60.9989 70.8345 60.9044C70.8668 60.8578 70.8979 60.8111 70.929 60.7644L70.9568 60.7233C71.0179 60.6322 71.0779 60.5422 71.1379 60.45C71.179 60.3867 71.2201 60.3233 71.2601 60.26C71.3179 60.17 71.3745 60.0789 71.4312 59.9878C71.4679 59.9289 71.5045 59.87 71.5401 59.81C71.6356 59.6533 71.729 59.4944 71.8201 59.3355L71.8623 59.2633C71.959 59.0933 72.0579 58.9144 72.1645 58.7144L72.2434 58.5644C72.319 58.4211 72.3923 58.2767 72.4645 58.1311L72.5401 57.9789C72.639 57.7755 72.7268 57.59 72.8068 57.4122L72.839 57.34C72.9134 57.1744 72.9856 57.0078 73.0556 56.84C73.079 56.7833 73.1034 56.7255 73.1268 56.6689C73.1879 56.5189 73.2479 56.3678 73.3056 56.2167L73.359 56.08C73.4312 55.8867 73.5012 55.6911 73.5679 55.4989L73.6112 55.3689C73.6634 55.2133 73.7134 55.0567 73.7623 54.8989C73.7812 54.84 73.799 54.78 73.8168 54.7211C73.8668 54.5533 73.9156 54.3844 73.9612 54.2155L73.9879 54.1189C74.039 53.9267 74.0879 53.73 74.1379 53.5178C74.1456 53.4833 74.1534 53.4489 74.1612 53.4144L74.1734 53.3578C74.209 53.2022 74.2412 53.0467 74.2734 52.8911L74.2812 52.8533C74.2901 52.8067 74.3001 52.7611 74.309 52.7144C74.3534 52.4844 74.389 52.2833 74.4179 52.0989C74.5201 51.4567 74.5901 50.81 74.6245 50.1744C74.6301 50.0689 74.7012 49.9789 74.8034 49.9489C74.9045 49.9189 75.0134 49.9555 75.0768 50.0411L78.0801 54.1355C78.1145 54.1822 78.1312 54.2389 78.1279 54.2967C78.0923 54.9489 78.0212 55.6144 77.9156 56.2722C77.8856 56.4611 77.849 56.6678 77.8034 56.9022C77.7945 56.9489 77.7856 56.9944 77.7756 57.0411L77.7668 57.0833C77.7345 57.2433 77.7001 57.4033 77.6645 57.5622L77.6523 57.6178C77.6445 57.6533 77.6368 57.69 77.6279 57.7255C77.5768 57.9444 77.5268 58.1455 77.4745 58.3411L77.4468 58.44C77.4001 58.6133 77.3501 58.7867 77.299 58.9578C77.2812 59.0189 77.2623 59.0789 77.2434 59.14C77.1934 59.3011 77.1423 59.4611 77.089 59.6211L77.0445 59.7544C76.9768 59.9511 76.9056 60.1511 76.8312 60.3489C76.8201 60.3789 76.809 60.4078 76.7968 60.4378L76.7768 60.49C76.7179 60.6444 76.6568 60.7989 76.5934 60.9533C76.569 61.0122 76.5456 61.07 76.5212 61.1289C76.449 61.3 76.3756 61.4711 76.3001 61.64L76.2734 61.7011C76.2723 61.7033 76.269 61.7111 76.2679 61.7133C76.1845 61.8967 76.0956 62.0855 75.9945 62.2933L75.9168 62.4489C75.8423 62.5978 75.7679 62.7444 75.6901 62.8922L75.6101 63.0455C75.5012 63.25 75.4001 63.4333 75.3012 63.6067L75.2579 63.68C75.1645 63.8433 75.069 64.0044 74.9712 64.1644L74.9523 64.1967C74.9434 64.2111 74.9356 64.2255 74.9268 64.24C74.9145 64.26 74.9012 64.2811 74.889 64.3011L74.8612 64.3455C74.8034 64.4378 74.7456 64.5311 74.6868 64.6222C74.6456 64.6867 74.6034 64.7522 74.5612 64.8167C74.5001 64.91 74.4379 65.0033 74.3756 65.0955L74.3479 65.1367C74.3156 65.1844 74.2834 65.2322 74.2512 65.2789C74.1845 65.3767 74.1168 65.4733 74.0479 65.57L74.0079 65.6267C73.9823 65.6633 73.9568 65.6989 73.9312 65.7355C73.849 65.85 73.7645 65.9644 73.6801 66.0778L73.6501 66.1189C73.6368 66.1367 73.6234 66.1555 73.6101 66.1733C73.609 66.1755 73.6034 66.1811 73.6023 66.1833C73.3934 66.4611 73.1734 66.7389 72.9512 67.0089C72.7223 67.2867 72.489 67.5578 72.2523 67.8222L72.2368 67.8389C72.0156 68.0844 71.7879 68.3278 71.559 68.5633L71.5479 68.5744C71.3279 68.8011 71.0923 69.0322 70.849 69.2644L70.8234 69.29C70.8223 69.2911 70.8134 69.2989 70.8123 69.3C70.5968 69.5044 70.3701 69.7111 70.1223 69.9289L70.0579 69.9855C69.839 70.1767 69.6045 70.3744 69.3612 70.5722L69.3401 70.59C69.329 70.5989 69.319 70.6078 69.3079 70.6167L69.2745 70.6422C69.0468 70.8267 68.8034 71.0155 68.5545 71.2033L68.459 71.2755C68.2234 71.4511 67.9756 71.6278 67.7223 71.8033L67.7001 71.82C67.6879 71.8289 67.6756 71.8378 67.6634 71.8467L67.619 71.8755C67.3634 72.05 67.0934 72.2278 66.8179 72.4011L66.7201 72.4633C66.4534 72.63 66.1734 72.7967 65.8901 72.96L65.8679 72.9733C65.8568 72.98 65.8445 72.9878 65.8334 72.9944L65.7768 73.0255C65.6679 73.0878 65.5579 73.1478 65.4479 73.2078L65.389 73.24C65.3534 73.26 65.3168 73.28 65.2812 73.2989C65.1279 73.3811 64.9734 73.4622 64.819 73.5411L64.7823 73.5611C64.6145 73.6467 64.4456 73.73 64.2756 73.8111C64.2412 73.8278 64.2068 73.8433 64.1723 73.86L64.1134 73.8878C63.9979 73.9422 63.8812 73.9978 63.7645 74.0511L63.7101 74.0767C63.6901 74.0855 63.6701 74.0944 63.6501 74.1033L63.6056 74.1222C63.4523 74.19 63.299 74.2567 63.1445 74.3222L62.9712 74.3944C62.7456 74.4878 62.5568 74.5633 62.3768 74.6322C62.1823 74.7067 61.9834 74.78 61.7568 74.86C61.7034 74.8789 61.6501 74.8978 61.5956 74.9155L61.5812 74.92C61.4234 74.9744 61.2645 75.0278 61.1056 75.0789L61.059 75.0944C61.0379 75.1011 61.0168 75.1089 60.9967 75.1155L60.9512 75.1289C60.719 75.2022 60.4734 75.2744 60.2234 75.3444L60.0723 75.3855C59.7956 75.4611 59.549 75.5244 59.319 75.5789L59.2712 75.59C59.0401 75.6444 58.8001 75.6967 58.5368 75.75L58.399 75.7778C58.1556 75.8255 57.9034 75.87 57.649 75.9111L57.4967 75.9344C57.2101 75.9789 56.9556 76.0144 56.719 76.0422L56.6979 76.0444C56.4568 76.0733 56.2068 76.0978 55.9256 76.1211L55.7801 76.1333C55.5279 76.1533 55.2712 76.1678 55.0156 76.1789L54.8656 76.1844C54.5645 76.1955 54.3112 76.2011 54.0712 76.2011ZM51.5101 75.5433C52.3401 75.6478 53.2012 75.7011 54.0712 75.7011C54.3056 75.7011 54.5523 75.6966 54.8501 75.6855L54.9967 75.68C55.2456 75.6689 55.4968 75.6544 55.7434 75.6355L55.8856 75.6233C56.1601 75.6 56.4056 75.5755 56.6356 75.5489C56.6367 75.5489 56.6468 75.5478 56.649 75.5478L56.6623 75.5466C56.8934 75.5189 57.1423 75.4844 57.4234 75.4411L57.5712 75.4178C57.8201 75.3778 58.0668 75.3333 58.3045 75.2867L58.439 75.2589C58.6968 75.2067 58.9312 75.1555 59.1567 75.1022L59.2045 75.0911C59.4279 75.0378 59.669 74.9755 59.9412 74.9022L60.089 74.8622C60.3345 74.7933 60.5745 74.7222 60.8023 74.65L60.8456 74.6367C60.8645 74.6311 60.8812 74.6244 60.899 74.6189L60.9534 74.6011C61.109 74.5511 61.2645 74.4989 61.4201 74.4455L61.4345 74.44C61.4868 74.4222 61.539 74.4044 61.5912 74.3855C61.8134 74.3066 62.009 74.2355 62.189 74.1667C62.3734 74.0955 62.559 74.0211 62.7812 73.93L62.9512 73.8589C63.1023 73.7955 63.2523 73.73 63.4023 73.6622L63.4534 73.64C63.4701 73.6322 63.4879 73.6255 63.5045 73.6178L63.559 73.5922C63.6723 73.54 63.7868 73.4867 63.9012 73.4333L63.9623 73.4044C63.9945 73.3889 64.0279 73.3744 64.0601 73.3589C64.2268 73.2789 64.3923 73.1967 64.5556 73.1133L64.5923 73.0944C64.7445 73.0166 64.8956 72.9378 65.0456 72.8567C65.0801 72.8378 65.1145 72.8189 65.149 72.8L65.209 72.7667C65.3168 72.7078 65.4245 72.6489 65.5312 72.5878L65.6079 72.5444C65.619 72.5378 65.6312 72.53 65.6423 72.5233C65.9201 72.3633 66.1945 72.2 66.4556 72.0367L66.5512 71.9755C66.8212 71.8044 67.0856 71.6311 67.3368 71.46L67.4368 71.39C67.6856 71.2178 67.929 71.0433 68.1601 70.8722L68.2545 70.8011C68.5001 70.6167 68.7379 70.4322 68.9623 70.25L69.0456 70.1811C69.2845 69.9867 69.5145 69.7933 69.7279 69.6055L69.7912 69.55C70.0345 69.3355 70.2556 69.1333 70.469 68.9322C70.4712 68.9311 70.4768 68.9255 70.479 68.9233L70.5045 68.8989C70.7434 68.6711 70.9745 68.4433 71.1901 68.2222L71.2034 68.2089C71.4256 67.9811 71.649 67.7422 71.8645 67.5011C71.8656 67.4989 71.8734 67.4922 71.8745 67.49C72.1123 67.2255 72.3412 66.96 72.5601 66.6944C72.5612 66.6933 72.5679 66.6855 72.5679 66.6844C72.7823 66.4244 72.9979 66.1511 73.2045 65.8767C73.2056 65.8744 73.2101 65.8689 73.2112 65.8678L73.2779 65.7767C73.3612 65.6655 73.4434 65.5544 73.5245 65.4411C73.549 65.4066 73.5734 65.3722 73.5979 65.3378L73.639 65.2789C73.7056 65.1844 73.7723 65.09 73.8379 64.9944C73.869 64.9489 73.9001 64.9022 73.9312 64.8555L73.959 64.8133C74.0201 64.7222 74.0801 64.6322 74.1401 64.54C74.1812 64.4767 74.2223 64.4133 74.2623 64.35C74.3201 64.26 74.3768 64.1689 74.4334 64.0789L74.5423 63.9011C74.6379 63.7444 74.7312 63.5867 74.8223 63.4267L74.8645 63.3544C74.9612 63.1855 75.0601 63.0055 75.1668 62.8055L75.2456 62.6555C75.3212 62.5122 75.3945 62.3678 75.4668 62.2222L75.5423 62.07C75.6412 61.8667 75.729 61.6811 75.809 61.5033C75.8101 61.5011 75.8134 61.4933 75.8145 61.4911L75.8412 61.43C75.9156 61.2644 75.9879 61.0978 76.0579 60.93C76.0812 60.8733 76.1056 60.8155 76.129 60.7589C76.1901 60.6089 76.2501 60.4578 76.3079 60.3067L76.3612 60.17C76.4334 59.9767 76.5034 59.7811 76.5701 59.5889L76.6134 59.4589C76.6656 59.3033 76.7156 59.1467 76.7645 58.9889C76.7823 58.93 76.8012 58.87 76.819 58.8111C76.869 58.6433 76.9179 58.4744 76.9634 58.3055L76.9901 58.2089C77.0412 58.0178 77.0901 57.8211 77.1401 57.6078L77.1756 57.4478C77.2112 57.2922 77.2434 57.1367 77.2756 56.9811L77.2845 56.9389C77.2934 56.8944 77.3023 56.8489 77.3112 56.8044C77.3556 56.5744 77.3912 56.3733 77.4201 56.19C77.5179 55.5778 77.5856 54.9611 77.6212 54.3544L75.0723 50.88C75.0334 51.3111 74.979 51.7444 74.9101 52.1744C74.8801 52.3633 74.8434 52.57 74.7979 52.8044C74.789 52.8522 74.779 52.9 74.769 52.9478L74.7612 52.9855C74.729 53.1455 74.6945 53.3055 74.659 53.4644L74.6468 53.52C74.639 53.5567 74.6312 53.5922 74.6223 53.6289C74.5712 53.8467 74.5212 54.0478 74.469 54.2444L74.4412 54.3433C74.3945 54.5167 74.3445 54.69 74.2934 54.8611C74.2756 54.9222 74.2568 54.9822 74.2379 55.0433C74.1879 55.2044 74.1368 55.3644 74.0834 55.5244L74.0656 55.5767C74.0568 55.6033 74.0479 55.6311 74.039 55.6578C73.9723 55.8544 73.9001 56.0544 73.8256 56.2522C73.8145 56.2822 73.8034 56.3111 73.7912 56.3411L73.7712 56.3933C73.7123 56.5478 73.6512 56.7022 73.5879 56.8567C73.5634 56.9155 73.5401 56.9733 73.5156 57.0322C73.4434 57.2033 73.3701 57.3744 73.2945 57.5433L73.2612 57.6178C73.179 57.7989 73.0901 57.9889 72.9879 58.1967L72.9101 58.3522C72.8356 58.5011 72.7612 58.6489 72.6834 58.7955L72.6034 58.9489C72.4945 59.1533 72.3934 59.3367 72.2945 59.51L72.2512 59.5844C72.1579 59.7467 72.0623 59.9089 71.9645 60.0689C71.9279 60.13 71.8901 60.19 71.8534 60.25C71.7956 60.3433 71.7379 60.4355 71.679 60.5278C71.6379 60.5922 71.5956 60.6578 71.5545 60.7222C71.4934 60.8155 71.4323 60.9078 71.3701 61.0011L71.3423 61.0422C71.3101 61.09 71.2779 61.1389 71.2445 61.1867C71.1779 61.2833 71.1101 61.38 71.0423 61.4755L71.0023 61.5333C70.9768 61.57 70.9512 61.6067 70.9245 61.6422C70.8423 61.7567 70.7579 61.8711 70.6734 61.9844L70.5979 62.0867C70.3868 62.3667 70.1668 62.6455 69.9445 62.9144C69.7156 63.1922 69.4823 63.4633 69.2456 63.7278L69.2345 63.74C69.0112 63.9889 68.7834 64.2322 68.5534 64.4689L68.5423 64.48C68.3234 64.7055 68.0879 64.9378 67.8434 65.17L67.8079 65.2044C67.5912 65.41 67.3656 65.6155 67.1179 65.8333L67.0534 65.89C66.8345 66.0822 66.6068 66.2733 66.3579 66.4767L66.2723 66.5466C66.0434 66.7322 65.8001 66.9211 65.5512 67.1078L65.4556 67.18C65.2223 67.3533 64.9745 67.5311 64.719 67.7078L64.6168 67.7789C64.3579 67.9567 64.0879 68.1333 63.8145 68.3055L63.7179 68.3667C63.4512 68.5333 63.1723 68.7 62.8879 68.8633L62.7745 68.9289C62.6656 68.9911 62.5568 69.0511 62.4468 69.1111L62.3912 69.1422C62.3545 69.1622 62.3168 69.1833 62.2801 69.2033C62.1268 69.2855 61.9723 69.3667 61.8179 69.4455L61.7801 69.4655C61.6123 69.5511 61.4434 69.6344 61.2745 69.7155C61.2434 69.7311 61.2112 69.7455 61.1801 69.76L61.1156 69.79C60.9979 69.8455 60.8812 69.9011 60.7623 69.9544L60.6056 70.0244C60.4523 70.0933 60.2979 70.16 60.1423 70.2255L60.129 70.2311C60.0767 70.2533 60.0234 70.2755 59.9712 70.2978C59.749 70.39 59.5534 70.4678 59.3734 70.5367C59.1834 70.61 58.989 70.6811 58.7556 70.7633C58.7012 70.7822 58.6479 70.8011 58.5934 70.82L58.5812 70.8244C58.4223 70.8789 58.2634 70.9322 58.1034 70.9833L57.9512 71.0322C57.7168 71.1055 57.4712 71.1789 57.2212 71.2489L57.0712 71.29C56.7956 71.3655 56.549 71.4289 56.3167 71.4833L56.2701 71.4933C56.039 71.5478 55.7979 71.6 55.5334 71.6533L55.3968 71.6811C55.1512 71.7289 54.899 71.7744 54.6468 71.8155L54.4956 71.8389C54.2056 71.8833 53.9512 71.9189 53.7168 71.9478L53.6956 71.95C53.4545 71.9789 53.2045 72.0033 52.9234 72.0267L52.7779 72.0389C52.5256 72.0589 52.269 72.0733 52.0134 72.0844L51.8634 72.09C51.5601 72.1011 51.3067 72.1055 51.0667 72.1055C50.3379 72.1055 49.6145 72.0689 48.909 71.9966L51.5101 75.5433Z" fill="#FFE1D4"/>
<path d="M51.8333 33.1111L52.5177 42.7633C49.0655 43.8022 46.0977 46.4066 44.7077 49.6611C44.3988 50.3833 44.1677 51.1389 44.0266 51.9155C44.0133 51.9889 44.0011 52.0622 43.9889 52.1355C43.2544 56.7377 45.9088 60.6089 50.16 61.6944L46.0288 71.2322C37.5722 69.0311 32.3 61.3144 33.7644 52.1355C33.7755 52.0622 33.7877 51.9889 33.8011 51.9155C35.0544 44.5778 40.3066 38.2022 47.0677 34.8733C48.5877 34.1222 50.1866 33.5278 51.8333 33.1111Z" fill="#EEB69E"/>
<path d="M46.0278 71.4811C46.0067 71.4811 45.9856 71.4789 45.9644 71.4733C37.18 69.1867 32.0611 61.2178 33.5167 52.0955C33.5289 52.0211 33.5411 51.9467 33.5533 51.8733C34.7756 44.7178 39.9111 38.1178 46.9556 34.6489C48.5089 33.8833 50.13 33.2844 51.7722 32.8689C51.8444 32.8511 51.92 32.8655 51.98 32.9089C52.04 32.9522 52.0778 33.02 52.0833 33.0933L52.7678 42.7455C52.7756 42.8622 52.7022 42.9689 52.59 43.0022C49.2167 44.0167 46.2844 46.6067 44.9378 49.7589C44.6322 50.4744 44.4078 51.2155 44.2722 51.96C44.2589 52.0311 44.2467 52.1022 44.2356 52.1744C43.5367 56.5578 45.9978 60.3722 50.2211 61.4511C50.2922 61.4689 50.3511 61.5178 50.3833 61.5833C50.4156 61.6489 50.4178 61.7255 50.3878 61.7933L46.2567 71.3311C46.2167 71.4233 46.1244 71.4811 46.0278 71.4811ZM51.6056 33.4278C50.0967 33.8311 48.6078 34.3911 47.1767 35.0967C40.2733 38.4967 35.2411 44.9567 34.0467 51.9567C34.0344 52.0289 34.0222 52.1011 34.0111 52.1733C32.61 60.96 37.4856 68.6433 45.8844 70.9333L49.8156 61.8578C45.5056 60.6178 43.0167 56.6444 43.7422 52.0944C43.7544 52.0189 43.7667 51.9444 43.7811 51.8689C43.9233 51.0878 44.1578 50.3111 44.4789 49.5611C45.8578 46.3355 48.8256 43.6767 52.2556 42.5811L51.6056 33.4278Z" fill="#FFE1D4"/>
<path d="M62.9889 45.7011L65.9922 49.7955C64.6445 47.9578 62.5111 46.71 59.9222 46.4278C59.5533 46.3878 59.1756 46.3667 58.79 46.3667C58.5278 46.3667 58.2622 46.3755 58.0022 46.3955L54.9989 42.3011C55.2589 42.2822 55.5245 42.2722 55.7867 42.2722C56.1722 42.2722 56.55 42.2933 56.9189 42.3333C59.5078 42.6155 61.6411 43.8633 62.9889 45.7011Z" fill="#E89D7D"/>
<path d="M65.9922 50.0456C65.9156 50.0456 65.8389 50.01 65.79 49.9433C64.4411 48.1044 62.3478 46.9433 59.8944 46.6756C59.2844 46.6089 58.6378 46.5989 58.0189 46.6433C57.9333 46.6489 57.85 46.6111 57.7989 46.5422L54.7956 42.4478C54.7422 42.3745 54.7322 42.2778 54.77 42.1956C54.8078 42.1133 54.8878 42.0578 54.9789 42.0511C55.6278 42.0045 56.3056 42.0144 56.9444 42.0844C59.5378 42.3678 61.7556 43.5989 63.1889 45.5533L66.1922 49.6478C66.2733 49.7589 66.25 49.9156 66.1389 49.9978C66.0944 50.03 66.0433 50.0456 65.9922 50.0456ZM58.7889 46.1167C59.18 46.1167 59.57 46.1378 59.9489 46.1789C61.5011 46.3478 62.9189 46.8578 64.1133 47.6578L62.7867 45.8489C61.4378 44.01 59.3444 42.8489 56.8911 42.5811C56.43 42.5311 55.95 42.5122 55.4744 42.5267L58.1222 46.1367C58.3422 46.1233 58.5667 46.1167 58.7889 46.1167Z" fill="#FFE1D4"/>
<mask id="mask2_3004_53598" style="mask-type:luminance" maskUnits="userSpaceOnUse" x="54" y="42" width="12" height="8">
<mask id="mask3_3004_53598" style="mask-type:luminance" maskUnits="userSpaceOnUse" x="54" y="42" width="12" height="8">
<path d="M62.9889 45.7011L65.9922 49.7955C64.6445 47.9578 62.5111 46.71 59.9222 46.4278C59.5533 46.3878 59.1756 46.3667 58.79 46.3667C58.5278 46.3667 58.2622 46.3755 58.0022 46.3955L54.9989 42.3011C55.2589 42.2822 55.5245 42.2722 55.7867 42.2722C56.1722 42.2722 56.55 42.2933 56.9189 42.3333C59.5078 42.6155 61.6411 43.8633 62.9889 45.7011Z" fill="white"/>
</mask>
<g mask="url(#mask3_3004_53598)">
<path d="M65.9922 50.0456C65.9156 50.0456 65.8389 50.01 65.79 49.9433C64.4411 48.1044 62.3478 46.9433 59.8944 46.6756C59.2844 46.6089 58.6378 46.5989 58.0189 46.6433C57.9333 46.6489 57.85 46.6111 57.7989 46.5422L54.7956 42.4478C54.7422 42.3745 54.7322 42.2778 54.77 42.1956C54.8078 42.1133 54.8878 42.0578 54.9789 42.0511C55.6278 42.0045 56.3056 42.0144 56.9444 42.0844C59.5378 42.3678 61.7556 43.5989 63.1889 45.5533L66.1922 49.6478C66.2733 49.7589 66.25 49.9156 66.1389 49.9978C66.0944 50.03 66.0433 50.0456 65.9922 50.0456ZM58.7889 46.1167C59.18 46.1167 59.57 46.1378 59.9489 46.1789C61.5011 46.3478 62.9189 46.8578 64.1133 47.6578L62.7867 45.8489C61.4378 44.01 59.3444 42.8489 56.8911 42.5811C56.43 42.5311 55.95 42.5122 55.4744 42.5267L58.1222 46.1367C58.3422 46.1233 58.5667 46.1167 58.7889 46.1167Z" fill="white"/>
</g>
</mask>
<g mask="url(#mask2_3004_53598)">
<path d="M62.9889 45.7011L65.9922 49.7955C64.6445 47.9578 62.5111 46.71 59.9222 46.4278C59.5533 46.3878 59.1756 46.3667 58.79 46.3667C58.5278 46.3667 58.2622 46.3755 58.0022 46.3955L54.9989 42.3011C55.2589 42.2822 55.5245 42.2722 55.7867 42.2722C56.1722 42.2722 56.55 42.2933 56.9189 42.3333C59.5078 42.6155 61.6411 43.8633 62.9889 45.7011Z" fill="#E89D7D"/>
<path d="M65.9922 50.0456C65.9156 50.0456 65.8389 50.01 65.79 49.9433C64.4411 48.1044 62.3478 46.9433 59.8944 46.6756C59.2844 46.6089 58.6378 46.5989 58.0189 46.6433C57.9333 46.6489 57.85 46.6111 57.7989 46.5422L54.7956 42.4478C54.7422 42.3745 54.7322 42.2778 54.77 42.1956C54.8078 42.1133 54.8878 42.0578 54.9789 42.0511C55.6278 42.0045 56.3056 42.0144 56.9444 42.0844C59.5378 42.3678 61.7556 43.5989 63.1889 45.5533L66.1922 49.6478C66.2733 49.7589 66.25 49.9156 66.1389 49.9978C66.0944 50.03 66.0433 50.0456 65.9922 50.0456ZM58.7889 46.1167C59.18 46.1167 59.57 46.1378 59.9489 46.1789C61.5011 46.3478 62.9189 46.8578 64.1133 47.6578L62.7867 45.8489C61.4378 44.01 59.3444 42.8489 56.8911 42.5811C56.43 42.5311 55.95 42.5122 55.4744 42.5267L58.1222 46.1367C58.3422 46.1233 58.5667 46.1167 58.7889 46.1167Z" fill="#FFE1D4"/>
</g>
<path d="M57.3589 32.41C57.7423 32.41 58.1211 32.42 58.4967 32.44C67.6711 32.9311 74.2611 39.3566 74.8623 47.8377L64.5456 50.15C64.3323 46.0066 61.2689 42.8066 56.9189 42.3322C56.55 42.2922 56.1723 42.2711 55.7867 42.2711C55.5245 42.2711 55.2589 42.28 54.9989 42.3L54.3123 32.6233C55.3167 32.4833 56.3345 32.41 57.3589 32.41Z" fill="#DC6C3C"/>
<path d="M64.5456 50.4011C64.4911 50.4011 64.4378 50.3833 64.3945 50.35C64.3356 50.3055 64.3 50.2378 64.2956 50.1633C64.0856 46.0889 61.11 43.0422 56.8911 42.5811C56.2822 42.5144 55.6345 42.5044 55.0156 42.5489C54.95 42.5533 54.8845 42.5322 54.8334 42.4889C54.7834 42.4455 54.7522 42.3833 54.7478 42.3178L54.0611 32.6411C54.0522 32.51 54.1456 32.3944 54.2756 32.3755C55.6845 32.1789 57.1167 32.1155 58.5089 32.19C67.6667 32.68 74.4934 39.1078 75.1111 47.82C75.12 47.9433 75.0367 48.0544 74.9167 48.0811L64.6 50.3933C64.5822 50.3989 64.5634 50.4011 64.5456 50.4011ZM55.7867 42.0222C56.1778 42.0222 56.5678 42.0433 56.9467 42.0844C59.1322 42.3233 61.0389 43.2244 62.4634 44.6922C63.8145 46.0844 64.61 47.86 64.7756 49.8433L74.5967 47.6422C73.9011 39.2989 67.3056 33.1633 58.4834 32.69C57.2 32.6211 55.88 32.6722 54.5778 32.84L55.23 42.0355C55.4145 42.0267 55.6011 42.0222 55.7867 42.0222Z" fill="#FFE1D4"/>
<path d="M76.9734 4.98113C75.94 3.80335 74.4334 3.21558 72.8334 3.21558C71.2323 3.21558 69.5378 3.80446 68.13 4.98113C66.72 6.16002 65.8634 7.70336 65.6167 9.2478C65.37 10.7922 65.7345 12.3356 66.7667 13.5134C67.8 14.6911 69.3056 15.28 70.9056 15.28C72.5067 15.28 74.2023 14.69 75.6134 13.5111C77.0223 12.3334 77.8789 10.7911 78.1256 9.24669C78.3711 7.70335 78.0078 6.15891 76.9734 4.98113Z" fill="#FFE1D4"/>
<path d="M70.8689 8.11554C71.1145 8.11554 71.3456 8.20554 71.5056 8.38554C71.8211 8.74554 71.7289 9.32998 71.2978 9.68998C71.08 9.86998 70.82 9.95999 70.5756 9.95999C70.33 9.95999 70.1 9.86998 69.9422 9.68998C69.6267 9.32998 69.7189 8.74554 70.15 8.38554C70.3644 8.20554 70.6233 8.11554 70.8689 8.11554Z" fill="#FFE1D4"/>
<path d="M69.2478 5.99774C69.7245 5.99774 70.1734 6.1733 70.4811 6.52441C71.0967 7.22552 70.9156 8.36219 70.0756 9.0633C69.6556 9.41552 69.15 9.59108 68.6723 9.59108C68.1956 9.59108 67.7467 9.41552 67.44 9.06552C66.8245 8.36441 67.0056 7.22552 67.8456 6.52441C68.2656 6.1733 68.7711 5.99774 69.2478 5.99774Z" fill="#FFE1D4"/>
<path d="M79.4055 2.94777C82.1555 6.07999 81.7 10.9667 78.5433 14.4478L78.3422 14.2189C78.0955 13.9389 77.7355 13.7978 77.3544 13.7978C76.9733 13.7978 76.5689 13.9378 76.2322 14.2189C75.5611 14.7822 75.4155 15.6911 75.9078 16.2544L76.1089 16.4833C74.3255 17.5989 72.3433 18.1567 70.4511 18.1567C68.0866 18.1567 65.8622 17.2867 64.3355 15.5467C61.2822 12.0667 62.1811 6.42666 66.3455 2.94666C68.4255 1.20777 70.9278 0.33777 73.2911 0.33777C75.6533 0.336659 77.8789 1.20666 79.4055 2.94777ZM75.6133 13.51C77.0222 12.3322 77.8789 10.79 78.1255 9.24555C78.3722 7.70221 78.0078 6.15777 76.9744 4.97999C75.9411 3.80222 74.4344 3.21444 72.8344 3.21444C71.2333 3.21444 69.5389 3.80333 68.1311 4.97999C66.7211 6.15888 65.8644 7.70221 65.6178 9.24666C65.3711 10.7911 65.7355 12.3344 66.7678 13.5122C67.8011 14.69 69.3066 15.2789 70.9066 15.2789C72.5066 15.2789 74.2033 14.6889 75.6133 13.51Z" fill="#DC6C3C"/>
<path d="M77.3545 13.7978C77.7356 13.7978 78.0956 13.9378 78.3423 14.2189L78.5434 14.4478L82.6667 19.15C83.1589 19.7111 83.0134 20.6222 82.3423 21.1833C82.0067 21.4633 81.6023 21.6045 81.2211 21.6045C80.84 21.6045 80.48 21.4645 80.2345 21.1833L76.1078 16.4822L75.9067 16.2533C75.4145 15.69 75.56 14.7811 76.2312 14.2178C76.5689 13.9378 76.9723 13.7978 77.3545 13.7978Z" fill="#DC6C3C"/>
</svg>
