<svg width="20" height="20" viewBox="0 0 20 20" fill="none" xmlns="http://www.w3.org/2000/svg">
<path d="M12.0833 9.99984C12.0833 11.1504 11.1506 12.0832 9.99996 12.0832C8.84937 12.0832 7.91663 11.1504 7.91663 9.99984C7.91663 8.84924 8.84937 7.9165 9.99996 7.9165C11.1506 7.9165 12.0833 8.84924 12.0833 9.99984Z" stroke="#141B34" stroke-width="1.5"/>
<path d="M15.8333 9.28485C15.5624 9.24562 15.2841 9.21572 15 9.19584M4.99996 10.8047C4.71577 10.7848 4.43755 10.7549 4.16663 10.7157" stroke="#2D2220" stroke-width="1.5" stroke-linecap="round" stroke-linejoin="round"/>
<path d="M9.99996 16.2498C8.88951 16.7685 7.43085 17.0832 5.83329 17.0832C4.94502 17.0832 4.0997 16.9859 3.33329 16.8103C2.08294 16.524 1.66663 15.7718 1.66663 14.4882V5.51148C1.66663 4.69079 2.53332 4.12711 3.33329 4.31034C4.0997 4.48588 4.94502 4.58317 5.83329 4.58317C7.43085 4.58317 8.88951 4.26847 9.99996 3.74984C11.1104 3.2312 12.5691 2.9165 14.1666 2.9165C15.0549 2.9165 15.9002 3.01379 16.6666 3.18933C17.9847 3.49124 18.3333 4.2668 18.3333 5.51148V14.4882C18.3333 15.3089 17.4666 15.8726 16.6666 15.6893C15.9002 15.5138 15.0549 15.4165 14.1666 15.4165C12.5691 15.4165 11.1104 15.7312 9.99996 16.2498Z" stroke="#141B34" stroke-width="1.5"/>
</svg>
