<svg width="10" height="10" viewBox="0 0 10 10" fill="none" xmlns="http://www.w3.org/2000/svg">
<path d="M5.17215 7.45059L7.14246 8.69872C7.39433 8.85809 7.70683 8.6209 7.63215 8.32684L7.06308 6.08778C7.04701 6.02541 7.04886 5.95977 7.06843 5.89841C7.088 5.83705 7.12449 5.78245 7.17371 5.7409L8.94058 4.27059C9.17246 4.07747 9.05308 3.69215 8.75465 3.67278L6.44746 3.52278C6.38534 3.51837 6.32575 3.49641 6.27563 3.45946C6.22551 3.4225 6.18691 3.37207 6.16433 3.31403L5.30371 1.14715C5.28027 1.08557 5.23868 1.03257 5.18443 0.99517C5.13018 0.957771 5.06585 0.937744 4.99996 0.937744C4.93407 0.937744 4.86974 0.957771 4.81549 0.99517C4.76124 1.03257 4.71964 1.08557 4.69621 1.14715L3.83558 3.31403C3.81306 3.37213 3.77448 3.42262 3.72435 3.45964C3.67423 3.49665 3.61461 3.51866 3.55246 3.52309L1.24527 3.67309C0.947147 3.69215 0.827147 4.07747 1.05933 4.27059L2.82621 5.74122C2.87537 5.78274 2.91182 5.83728 2.93139 5.89858C2.95096 5.95988 2.95285 6.02546 2.93683 6.08778L2.40933 8.16434C2.31965 8.51715 2.69496 8.80184 2.99683 8.61028L4.82808 7.45059C4.87955 7.41787 4.93928 7.40049 5.00027 7.40049C5.06126 7.40049 5.12099 7.41787 5.17246 7.45059H5.17215Z" fill="#FF8A00"/>
</svg>
