<svg width="19" height="18" viewBox="0 0 19 18" fill="none" xmlns="http://www.w3.org/2000/svg">
<path fill-rule="evenodd" clip-rule="evenodd" d="M9.5 15.75C13.2279 15.75 16.25 12.7279 16.25 9C16.25 5.27208 13.2279 2.25 9.5 2.25C5.77208 2.25 2.75 5.27208 2.75 9C2.75 12.7279 5.77208 15.75 9.5 15.75ZM12.2566 8.05309C12.562 7.77333 12.5828 7.29891 12.3031 6.99345C12.0233 6.68799 11.5489 6.66715 11.2434 6.94691L8.47439 9.48298L7.75655 8.82554C7.45109 8.54578 6.97667 8.56661 6.69691 8.87207C6.41715 9.17754 6.43799 9.65195 6.74345 9.93171L7.96784 11.0531C8.25451 11.3156 8.69427 11.3156 8.98094 11.0531L12.2566 8.05309Z" fill="#05A85A"/>
</svg>
